<svg width="296" height="69" viewBox="0 0 296 69" fill="none" xmlns="http://www.w3.org/2000/svg">
<path d="M195.515 0.00500488C195.515 2.705 195.524 5.09902 195.515 7.49802C195.5 10.715 195.415 13.933 195.469 17.149C195.488 17.6354 195.397 18.1198 195.205 18.5668C195.012 19.0138 194.722 19.4122 194.356 19.733C186.76 27.2663 179.184 34.822 171.627 42.4C171.115 42.8902 170.649 43.4257 170.233 44C167.807 47.53 168.305 50.754 171.789 53.239C174.577 55.3263 177.962 56.4625 181.445 56.48C192.767 56.448 204.09 56.48 215.413 56.461C219.083 56.4412 222.673 55.3906 225.774 53.429C229.374 51.214 230.116 48.502 227.632 45.11C225.41 42.3568 223.032 39.7325 220.511 37.25C220.134 36.842 219.687 36.497 219.08 35.95H254.45C254.241 36.2424 254.018 36.524 253.781 36.794C243.878 46.9093 233.981 57.0307 224.092 67.158C223.734 67.4933 223.306 67.7449 222.84 67.8947C222.373 68.0444 221.878 68.0886 221.392 68.024C213.054 68.024 204.716 68.024 196.378 68.024C190.645 68.024 184.911 68.102 179.178 67.991C176.344 68.0351 173.513 67.7766 170.733 67.22C167.269 66.5153 164.075 64.8458 161.519 62.4041C158.963 59.9624 157.149 56.848 156.287 53.42C154.238 46.235 155.806 39.62 161.07 34.278C172.234 22.946 183.57 11.789 194.843 0.562012C194.969 0.433012 195.122 0.327005 195.515 0.00500488Z" fill="white"/>
<path d="M30.346 56.355C26.801 59.9 23.305 63.355 19.865 66.869C19.5688 67.1928 19.204 67.4462 18.7972 67.6107C18.3904 67.7753 17.952 67.8468 17.514 67.82C11.833 67.777 6.15201 67.799 0.265015 67.799C0.647015 67.383 0.929023 67.051 1.23602 66.743C12.2467 55.7337 23.2584 44.7253 34.271 33.718C37.2084 30.7869 40.9901 28.8496 45.085 28.1782C49.18 27.5068 53.3823 28.1352 57.1019 29.9749C60.8214 31.8146 63.8711 34.7733 65.8227 38.4353C67.7742 42.0974 68.5296 46.2788 67.9826 50.3922C67.4356 54.5056 65.6138 58.3443 62.773 61.3691C59.9322 64.3939 56.2153 66.4528 52.1443 67.2565C48.0732 68.0603 43.8527 67.5685 40.0755 65.8503C36.2983 64.1321 33.1543 61.2739 31.085 57.677C30.852 57.271 30.63 56.86 30.346 56.355ZM42.095 47.764C42.0881 49.4192 42.739 51.0094 43.9046 52.1846C45.0701 53.3599 46.6548 54.0241 48.31 54.031C49.9652 54.0379 51.5554 53.387 52.7307 52.2214C53.906 51.0559 54.5701 49.4712 54.577 47.816C54.5804 46.9964 54.4224 46.1842 54.1119 45.4257C53.8014 44.6672 53.3446 43.9773 52.7675 43.3953C52.1903 42.8134 51.5043 42.3508 50.7484 42.034C49.9925 41.7172 49.1816 41.5524 48.362 41.549C47.5424 41.5456 46.7302 41.7036 45.9717 42.0141C45.2132 42.3246 44.5233 42.7815 43.9414 43.3586C43.3594 43.9357 42.8968 44.6218 42.58 45.3776C42.2632 46.1335 42.0984 46.9444 42.095 47.764Z" fill="#4E4E4E"/>
<path d="M258.068 56.324C254.461 59.953 251.015 63.469 247.494 66.908C246.925 67.4233 246.194 67.7251 245.427 67.762C240.073 67.845 234.719 67.828 229.365 67.843H228.011C228.431 67.366 228.677 67.055 228.957 66.775C239.971 55.759 250.932 44.689 262.027 33.754C267.847 28.021 274.927 26.42 282.605 29.07C290.181 31.686 294.693 37.25 295.753 45.226C296.386 49.8204 295.374 54.4905 292.896 58.4106C290.418 62.3307 286.633 65.2481 282.211 66.647C277.798 68.0753 273.024 67.9177 268.714 66.2015C264.404 64.4853 260.829 61.3183 258.605 57.247C258.467 57.003 258.324 56.764 258.068 56.324ZM276.096 53.963C277.743 53.9681 279.325 53.3194 280.494 52.1595C281.664 50.9995 282.325 49.423 282.333 47.776C282.331 46.9559 282.168 46.1442 281.853 45.3872C281.537 44.6302 281.076 43.9427 280.494 43.3641C279.913 42.7854 279.224 42.3269 278.465 42.0147C277.707 41.7025 276.895 41.5427 276.075 41.5445C275.255 41.5463 274.443 41.7096 273.686 42.025C272.929 42.3405 272.241 42.802 271.663 43.3832C271.084 43.9643 270.626 44.6537 270.313 45.4121C270.001 46.1705 269.841 46.9829 269.843 47.803C269.847 48.6185 270.012 49.4252 270.329 50.1767C270.646 50.9282 271.108 51.6096 271.689 52.182C272.27 52.7543 272.958 53.2062 273.714 53.5116C274.471 53.8171 275.28 53.9702 276.095 53.962L276.096 53.963Z" fill="white"/>
<path d="M108.937 39.443C110.203 38.155 111.337 36.962 112.524 35.819C112.828 35.4736 113.24 35.2415 113.693 35.161C119.649 35.118 125.606 35.131 131.793 35.131C131.393 35.58 131.12 35.923 130.811 36.231C122.217 44.837 113.619 53.4394 105.018 62.038C102.05 65.0078 98.2199 66.9638 94.074 67.6266C89.9282 68.2895 85.6789 67.6254 81.933 65.729C74.309 61.792 69.8781 53.304 71.2331 45.229C71.8481 40.9798 73.8203 37.0432 76.8554 34.0064C79.8906 30.9696 83.8261 28.9954 88.075 28.378C95.832 27.258 104.316 30.672 108.937 39.443ZM84.724 47.913C84.7025 48.7313 84.8442 49.5456 85.1409 50.3085C85.4376 51.0713 85.8834 51.7674 86.4521 52.3561C87.0208 52.9448 87.7012 53.4142 88.4534 53.737C89.2056 54.0598 90.0145 54.2294 90.833 54.236C92.483 54.2657 94.0771 53.6388 95.2648 52.4931C96.4524 51.3475 97.1363 49.7769 97.166 48.127C97.1957 46.4771 96.5688 44.883 95.4231 43.6953C94.2775 42.5077 92.707 41.8237 91.057 41.794C90.2388 41.7776 89.4255 41.9231 88.6637 42.222C87.9019 42.521 87.2067 42.9676 86.6181 43.5361C86.0294 44.1047 85.559 44.784 85.2338 45.535C84.9086 46.2859 84.735 47.0938 84.723 47.912L84.724 47.913Z" fill="white"/>
<path d="M156.871 35.158C156.112 35.864 155.331 36.546 154.598 37.278C144.839 47.008 135.09 56.747 125.35 66.495C125.035 66.8351 124.652 67.1044 124.225 67.2851C123.799 67.4658 123.338 67.5537 122.875 67.543C116.963 67.657 111.053 67.843 104.91 68.016C105.244 67.597 105.435 67.306 105.676 67.065C116.163 56.5903 126.656 46.1237 137.156 35.665C137.512 35.2442 138.001 34.9568 138.542 34.85C144.596 34.795 150.652 34.814 156.706 34.814L156.871 35.158Z" fill="white"/>
<path d="M13.3871 34.374C13.4 35.6911 13.0222 36.9825 12.3013 38.0848C11.5804 39.1872 10.5488 40.051 9.33698 40.5671C8.12514 41.0832 6.7875 41.2284 5.49316 40.9843C4.19883 40.7402 3.00593 40.1178 2.06531 39.1958C1.12469 38.2738 0.478583 37.0935 0.208694 35.8043C-0.0611944 34.5151 0.0572548 33.1748 0.549057 31.9529C1.04086 30.7311 1.88392 29.6824 2.97166 28.9397C4.05941 28.1969 5.34298 27.7934 6.66006 27.78C7.53498 27.7704 8.40319 27.9334 9.21503 28.2597C10.0269 28.5861 10.7664 29.0693 11.3912 29.6818C12.016 30.2943 12.514 31.024 12.8564 31.8291C13.1989 32.6343 13.3792 33.4991 13.3871 34.374Z" fill="#4E4E4E"/>
<path d="M149.411 19.18C150.288 19.1736 151.158 19.3419 151.97 19.675C152.782 20.0081 153.519 20.4994 154.139 21.1203C154.759 21.7412 155.249 22.4792 155.58 23.2914C155.912 24.1036 156.079 24.9737 156.071 25.851C156.029 27.5988 155.3 29.2595 154.042 30.4738C152.784 31.6881 151.099 32.3584 149.351 32.3396C147.602 32.3208 145.932 31.6145 144.701 30.3734C143.469 29.1323 142.776 27.4563 142.771 25.708C142.777 24.843 142.954 23.9878 143.291 23.1912C143.629 22.3947 144.12 21.6725 144.736 21.0661C145.353 20.4596 146.084 19.9809 146.886 19.6572C147.688 19.3336 148.546 19.1714 149.411 19.18Z" fill="white"/>
<path d="M234.889 25.745C234.927 24.0005 235.649 22.3408 236.899 21.1237C238.149 19.9065 239.828 19.2294 241.572 19.2383C243.317 19.2472 244.989 19.9414 246.227 21.1713C247.464 22.4012 248.169 24.0682 248.189 25.813C248.151 27.5574 247.429 29.2172 246.179 30.4344C244.929 31.6515 243.25 32.3286 241.506 32.3197C239.761 32.3108 238.089 31.6165 236.852 30.3867C235.614 29.1568 234.909 27.4897 234.889 25.745Z" fill="white"/>
</svg>
