<svg width="219" height="52" viewBox="0 0 219 52" fill="none" xmlns="http://www.w3.org/2000/svg">
<path d="M144.606 0.798004C144.606 2.789 144.613 4.56202 144.606 6.33401C144.595 8.71101 144.533 11.089 144.572 13.464C144.586 13.8234 144.519 14.1813 144.376 14.5116C144.234 14.8418 144.02 15.1361 143.749 15.373C138.137 20.9417 132.539 26.5243 126.955 32.121C126.577 32.4834 126.232 32.8794 125.925 33.304C124.133 35.912 124.5 38.294 127.074 40.13C129.134 41.6725 131.636 42.5118 134.209 42.524C142.575 42.5 150.94 42.524 159.309 42.51C162.02 42.4954 164.673 41.7192 166.964 40.27C169.621 38.633 170.172 36.63 168.337 34.123C166.695 32.0885 164.938 30.1494 163.075 28.315C162.796 28.015 162.466 27.759 162.018 27.355H188.152C187.998 27.5711 187.833 27.7794 187.658 27.979C180.343 35.4543 173.031 42.9327 165.723 50.414C165.458 50.6625 165.141 50.8489 164.795 50.9596C164.449 51.0703 164.083 51.1025 163.723 51.054H145.239C141.003 51.054 136.766 51.112 132.533 51.029C130.439 51.0618 128.348 50.871 126.294 50.46C123.787 49.8666 121.481 48.62 119.612 46.847C117.743 45.0739 116.376 42.8376 115.651 40.3653C114.926 37.893 114.868 35.2728 115.483 32.7709C116.099 30.2691 117.366 27.9747 119.155 26.121C127.403 17.748 135.782 9.50402 144.109 1.21002C144.203 1.11402 144.316 1.036 144.606 0.798004Z" fill="#0C765E"/>
<path d="M22.569 42.433C19.949 45.052 17.369 47.606 14.825 50.201C14.6059 50.4398 14.3363 50.6265 14.0357 50.7477C13.7352 50.8688 13.4114 50.9212 13.088 50.901C8.888 50.87 4.69299 50.885 0.343994 50.885C0.625994 50.578 0.834996 50.332 1.062 50.104C9.19533 41.9707 17.3317 33.8373 25.471 25.704C27.6411 23.5382 30.4353 22.1066 33.4609 21.6104C36.4865 21.1142 39.5916 21.5783 42.3398 22.9376C45.0881 24.2968 47.3415 26.4829 48.7835 29.1886C50.2254 31.8944 50.7835 34.984 50.3793 38.0232C49.9751 41.0625 48.6289 43.8988 46.5299 46.1336C44.4308 48.3685 41.6844 49.8896 38.6764 50.4833C35.6684 51.077 32.55 50.7134 29.7592 49.4437C26.9685 48.1739 24.6456 46.0618 23.117 43.404C22.943 43.11 22.779 42.806 22.569 42.433ZM31.25 36.086C31.2448 37.3091 31.7257 38.4841 32.5869 39.3526C33.4481 40.2211 34.6189 40.7118 35.842 40.717C37.065 40.7222 38.2401 40.2413 39.1085 39.3801C39.977 38.519 40.4678 37.3481 40.473 36.125C40.4756 35.5194 40.3588 34.9193 40.1294 34.3588C39.9 33.7983 39.5625 33.2885 39.1361 32.8585C38.7097 32.4285 38.2028 32.0866 37.6443 31.8525C37.0857 31.6184 36.4866 31.4966 35.881 31.494C35.2754 31.4915 34.6752 31.6082 34.1148 31.8376C33.5543 32.067 33.0445 32.4045 32.6145 32.8309C32.1844 33.2573 31.8426 33.7642 31.6085 34.3228C31.3744 34.8813 31.2526 35.4804 31.25 36.086Z" fill="#131313"/>
<path d="M190.826 42.41C188.161 45.092 185.615 47.689 183.013 50.23C182.592 50.6107 182.053 50.8337 181.486 50.861C177.53 50.922 173.574 50.91 169.619 50.921H168.619C168.929 50.569 169.111 50.338 169.319 50.132C177.457 41.992 185.555 33.813 193.753 25.732C195.693 23.8009 198.133 22.4503 200.799 21.8326C203.466 21.215 206.252 21.3549 208.843 22.2365C211.434 23.1181 213.727 24.7064 215.463 26.8221C217.199 28.9378 218.31 31.4967 218.669 34.21C219.137 37.6038 218.39 41.0539 216.56 43.9502C214.73 46.8465 211.935 49.0025 208.669 50.037C205.408 51.0925 201.881 50.9764 198.696 49.7086C195.512 48.4409 192.87 46.101 191.227 43.093C191.121 42.913 191.015 42.736 190.826 42.41ZM204.146 40.666C205.363 40.6697 206.531 40.1905 207.395 39.3335C208.259 38.4765 208.748 37.3118 208.754 36.095C208.762 35.4833 208.647 34.8763 208.418 34.3091C208.189 33.7419 207.85 33.226 207.419 32.7912C206.989 32.3565 206.477 32.0116 205.912 31.7767C205.347 31.5418 204.741 31.4215 204.129 31.4228C203.518 31.4241 202.912 31.547 202.349 31.7844C201.785 32.0218 201.274 32.3689 200.845 32.8055C200.417 33.2421 200.08 33.7595 199.853 34.3277C199.626 34.8958 199.515 35.5034 199.525 36.115C199.528 36.7177 199.65 37.3139 199.884 37.8694C200.118 38.4248 200.46 38.9285 200.889 39.3514C201.319 39.7744 201.827 40.1083 202.386 40.3339C202.945 40.5595 203.543 40.6723 204.146 40.666Z" fill="#0C765E"/>
<path d="M80.638 29.938C81.574 28.987 82.414 28.105 83.288 27.261C83.5126 27.0058 83.8172 26.8344 84.152 26.775C88.552 26.743 92.952 26.753 97.529 26.753C97.235 27.085 97.029 27.338 96.804 27.566C90.454 33.9247 84.1017 40.2807 77.747 46.634C75.5427 48.8257 72.6985 50.2596 69.6256 50.7282C66.5527 51.1969 63.4104 50.676 60.653 49.241C57.8957 47.8059 55.6662 45.5311 54.2869 42.7454C52.9077 39.9597 52.4502 36.8076 52.9806 33.7447C53.511 30.6819 55.0019 27.8671 57.2375 25.7074C59.4731 23.5477 62.3377 22.1551 65.4171 21.7308C68.4964 21.3065 71.6309 21.8727 74.3673 23.3473C77.1036 24.822 79.3001 27.1287 80.639 29.934L80.638 29.938ZM62.747 36.196C62.731 36.8006 62.8357 37.4024 63.0549 37.9661C63.2742 38.5298 63.6035 39.0441 64.0238 39.4791C64.444 39.9141 64.9468 40.2609 65.5026 40.4994C66.0584 40.7379 66.6562 40.8632 67.261 40.868C67.8776 40.9005 68.4945 40.8085 69.0748 40.5975C69.6551 40.3866 70.187 40.0609 70.6387 39.64C71.0905 39.2191 71.4529 38.7115 71.7044 38.1476C71.9558 37.5836 72.0911 36.9748 72.1023 36.3575C72.1134 35.7401 72.0002 35.1268 71.7692 34.5541C71.5383 33.9815 71.1945 33.4611 70.7582 33.0242C70.3219 32.5872 69.8021 32.2426 69.2298 32.0108C68.6575 31.779 68.0444 31.6648 67.427 31.675C66.8224 31.6628 66.2213 31.7703 65.6584 31.9912C65.0955 32.2121 64.5818 32.5422 64.1469 32.9623C63.7119 33.3825 63.3643 33.8845 63.1241 34.4394C62.8839 34.9944 62.7557 35.5914 62.747 36.196Z" fill="#0C765E"/>
<path d="M116.055 26.771C115.494 27.292 114.917 27.797 114.376 28.337C107.165 35.5277 99.9617 42.723 92.7651 49.923C92.5326 50.1741 92.2494 50.373 91.9342 50.5064C91.6191 50.6399 91.2792 50.7048 90.9371 50.697C86.5691 50.781 82.2021 50.92 77.6631 51.047C77.9101 50.738 78.0511 50.522 78.2291 50.347C85.9771 42.6077 93.7301 34.8743 101.488 27.147C101.752 26.837 102.113 26.6255 102.512 26.547C106.985 26.507 111.459 26.521 115.933 26.521L116.055 26.771Z" fill="#0C765E"/>
<path d="M10.039 26.192C10.0487 27.1652 9.76951 28.1194 9.23685 28.934C8.70419 29.7485 7.94194 30.3868 7.04651 30.7682C6.15108 31.1496 5.16267 31.2569 4.20627 31.0765C3.24987 30.8961 2.36843 30.4362 1.67342 29.7549C0.978398 29.0736 0.501016 28.2015 0.301635 27.2489C0.102254 26.2962 0.189826 25.3059 0.553283 24.403C0.91674 23.5002 1.53976 22.7254 2.34355 22.1766C3.14734 21.6278 4.0958 21.3297 5.06901 21.32C5.71544 21.3129 6.35693 21.4333 6.95674 21.6744C7.55656 21.9155 8.10293 22.2726 8.56457 22.7251C9.02622 23.1777 9.39407 23.7168 9.64708 24.3117C9.90009 24.9066 10.0333 25.5455 10.039 26.192Z" fill="#131313"/>
<path d="M110.542 14.966C111.19 14.9612 111.833 15.0855 112.433 15.3316C113.032 15.5777 113.577 15.9407 114.035 16.3995C114.493 16.8582 114.855 17.4036 115.101 18.0037C115.346 18.6039 115.469 19.2468 115.463 19.895C115.449 21.1983 114.918 22.4426 113.986 23.3542C113.055 24.2658 111.799 24.7701 110.496 24.756C109.193 24.742 107.948 24.2108 107.037 23.2793C106.125 22.3478 105.621 21.0923 105.635 19.789C105.64 19.1499 105.77 18.5179 106.02 17.9293C106.269 17.3408 106.632 16.8071 107.088 16.3591C107.543 15.9111 108.083 15.5574 108.676 15.3183C109.269 15.0793 109.903 14.9595 110.542 14.966Z" fill="#0C765E"/>
<path d="M173.699 19.817C173.706 18.5137 174.23 17.2665 175.156 16.3496C176.082 15.4327 177.335 14.9214 178.638 14.928C179.941 14.9346 181.189 15.4587 182.105 16.385C183.022 17.3112 183.534 18.5637 183.527 19.867C183.52 21.1703 182.996 22.4175 182.07 23.3344C181.144 24.2513 179.891 24.7626 178.588 24.756C177.285 24.7494 176.038 24.2253 175.121 23.299C174.204 22.3728 173.692 21.1203 173.699 19.817Z" fill="#0C765E"/>
</svg>
