<svg width="28" height="29" viewBox="0 0 28 29" fill="none" xmlns="http://www.w3.org/2000/svg">
<path d="M8.75199 5.17764L7.10123 3.52604C5.69073 4.59445 4.53311 5.96069 3.71081 7.52749C2.8885 9.09429 2.42173 10.8231 2.34372 12.5909H4.65292C4.73473 11.1265 5.14579 9.69943 5.85549 8.41593C6.56519 7.13242 7.55526 6.02552 8.75199 5.17764ZM23.0583 12.5909H25.3683C25.2856 10.8244 24.8171 9.09743 23.9956 7.53139C23.1741 5.96535 22.0197 4.5982 20.6133 3.52604L18.971 5.17764C20.1626 6.0297 21.1482 7.13783 21.8555 8.42065C22.5628 9.70347 22.9737 11.1284 23.0583 12.5909ZM20.7819 13.1684C20.7819 9.62743 18.8884 6.65556 15.586 5.87065V5.0849C15.586 4.62551 15.4035 4.18494 15.0787 3.86011C14.7539 3.53527 14.3133 3.35278 13.8539 3.35278C13.3945 3.35278 12.954 3.53527 12.6291 3.86011C12.3043 4.18494 12.1218 4.62551 12.1218 5.0849V5.86981C8.81016 6.65556 6.92756 9.61141 6.92756 13.1684V18.9418L4.61836 21.251V22.4069H23.0937V21.2518L20.7819 18.9418V13.1684ZM13.856 25.8694C14.0113 25.8717 14.1663 25.8562 14.318 25.823C14.6838 25.7451 15.0255 25.5808 15.3148 25.3437C15.604 25.1067 15.8323 24.8039 15.9806 24.4606C16.0976 24.175 16.1563 23.8689 16.1534 23.5602H11.535C11.5395 24.1733 11.7858 24.7599 12.2204 25.1923C12.6551 25.6248 13.2429 25.8681 13.856 25.8694Z" fill="#1A8191"/>
</svg>
