<svg width="16" height="26" viewBox="0 0 16 26" fill="none" xmlns="http://www.w3.org/2000/svg">
<path d="M0.698348 21.4365L2.19801 25.3241L6.08489 23.8248L13.1257 7.93641L7.73914 5.54811L0.698348 21.4365ZM14.9719 3.77028C15.0309 3.63731 15.0632 3.49399 15.0669 3.34853C15.0705 3.20306 15.0454 3.05829 14.993 2.92253C14.9407 2.78676 14.862 2.66265 14.7617 2.55731C14.6613 2.45197 14.5411 2.36746 14.408 2.30862L11.0519 0.82058C10.919 0.761464 10.7757 0.729153 10.6302 0.725497C10.4848 0.721841 10.34 0.746912 10.2043 0.799273C10.0686 0.851635 9.94448 0.93026 9.83917 1.03065C9.73385 1.13103 9.64937 1.25121 9.59056 1.3843L8.41861 4.00772L13.8051 6.39603L14.9699 3.76754L14.9719 3.77028Z" fill="#1A8191"/>
</svg>
