<svg width="20" height="20" viewBox="0 0 20 20" fill="none" xmlns="http://www.w3.org/2000/svg">
<path d="M11.8189 6.32745L10.2886 4.79939L4.87166 10.2163L10.2886 15.6332L11.8189 14.1052L9.02571 11.2994L19.5 11.2994V9.13248L9.02571 9.13248L11.8189 6.32745ZM2.16691 19.9663L17.3331 19.9663C17.6177 19.9664 17.8995 19.9104 18.1624 19.8016C18.4254 19.6927 18.6643 19.5331 18.8655 19.3319C19.0668 19.1306 19.2264 18.8917 19.3353 18.6288C19.4441 18.3658 19.5001 18.084 19.5 17.7994V13.4663H17.3331V17.7994L2.16691 17.7994L2.16691 2.63322L17.3331 2.63322L17.3331 6.96631H19.5L19.5 2.63322C19.5001 2.34863 19.4441 2.06681 19.3353 1.80386C19.2264 1.54092 19.0668 1.302 18.8655 1.10077C18.6643 0.899529 18.4254 0.739918 18.1624 0.631056C17.8995 0.522192 17.6177 0.466211 17.3331 0.466309L2.16691 0.466309C1.5927 0.467876 1.04244 0.696678 0.636406 1.10271C0.23037 1.50875 0.00156784 2.059 0 2.63322L0 17.7994C0.00156784 18.3736 0.23037 18.9239 0.636406 19.3299C1.04244 19.7359 1.5927 19.9647 2.16691 19.9663Z" fill="#1A8191"/>
</svg>
