<svg width="20" height="21" viewBox="0 0 20 21" fill="none" xmlns="http://www.w3.org/2000/svg">
<path d="M8.08 8.87794C8.12657 8.57219 8.22821 8.27741 8.38 8.00794C8.52229 7.75561 8.72503 7.54256 8.97001 7.38794C9.24721 7.23101 9.56153 7.15157 9.88 7.15794C10.0961 7.16338 10.3094 7.20741 10.51 7.28794C10.7054 7.37243 10.8821 7.49479 11.03 7.64794C11.1716 7.80476 11.2865 7.98382 11.37 8.17794C11.4565 8.38057 11.504 8.5977 11.51 8.81794H13.3C13.2874 8.37431 13.1925 7.93687 13.02 7.52794C12.8589 7.14658 12.6205 6.8027 12.32 6.51794C12.0065 6.22962 11.6396 6.00542 11.24 5.85794C10.7947 5.69672 10.3235 5.61876 9.85001 5.62794C9.26503 5.61257 8.68407 5.72876 8.15 5.96794C7.6867 6.18179 7.2768 6.49605 6.95 6.88794C6.62236 7.28765 6.38066 7.75062 6.24 8.24794C6.08267 8.78047 6.00186 9.33266 6 9.88794V10.1579C5.99858 10.7127 6.07602 11.2649 6.23 11.7979C6.36853 12.2931 6.61052 12.7532 6.94 13.1479C7.26728 13.5368 7.67725 13.8477 8.14001 14.0579C8.67556 14.2924 9.25546 14.4084 9.84 14.3979C10.2901 14.3998 10.737 14.3219 11.16 14.1679C11.5557 14.0263 11.9219 13.8127 12.24 13.5379C12.5463 13.2765 12.7978 12.957 12.98 12.5979C13.1644 12.2417 13.2669 11.8488 13.28 11.4479H11.49C11.4817 11.6497 11.4306 11.8474 11.34 12.0279C11.2519 12.2038 11.1295 12.3602 10.98 12.4879C10.8275 12.6204 10.651 12.7222 10.46 12.7879C10.2663 12.8519 10.064 12.8856 9.86 12.8879C9.54785 12.8945 9.23992 12.8149 8.97001 12.6579C8.72503 12.5033 8.52229 12.2903 8.38 12.0379C8.2282 11.7649 8.1266 11.4669 8.08 11.1579C8.02853 10.8271 8.00179 10.4928 8 10.1579V9.88794C8.001 9.54974 8.02774 9.21209 8.08 8.87794ZM10 0.0179443C8.02219 0.0179443 6.08879 0.604434 4.4443 1.70325C2.79981 2.80206 1.51809 4.36385 0.761209 6.19111C0.00433284 8.01837 -0.193701 10.029 0.192152 11.9688C0.578004 13.9087 1.53041 15.6905 2.92894 17.089C4.32746 18.4875 6.10929 19.4399 8.0491 19.8258C9.98891 20.2117 11.9996 20.0136 13.8268 19.2567C15.6541 18.4999 17.2159 17.2181 18.3147 15.5736C19.4135 13.9292 20 11.9958 20 10.0179C20 8.70473 19.7413 7.40437 19.2388 6.19111C18.7363 4.97785 17.9997 3.87546 17.0711 2.94688C16.1425 2.01829 15.0401 1.2817 13.8268 0.779149C12.6136 0.276602 11.3132 0.0179443 10 0.0179443ZM10 18.0179C8.41775 18.0179 6.87104 17.5488 5.55544 16.6697C4.23985 15.7906 3.21447 14.5412 2.60897 13.0794C2.00347 11.6176 1.84504 10.0091 2.15372 8.45722C2.4624 6.90537 3.22433 5.47991 4.34315 4.36109C5.46197 3.24227 6.88743 2.48034 8.43928 2.17166C9.99113 1.86298 11.5997 2.02141 13.0615 2.62691C14.5233 3.23241 15.7727 4.25779 16.6518 5.57338C17.5308 6.88898 18 8.43569 18 10.0179C17.9971 12.1388 17.1533 14.1719 15.6536 15.6716C14.154 17.1712 12.1208 18.015 10 18.0179Z" fill="#4D4D4D"/>
</svg>
