<svg width="28" height="26" viewBox="0 0 28 26" fill="none" xmlns="http://www.w3.org/2000/svg">
<path d="M2.46949 13.8411H2.00367C1.57789 13.8444 1.16489 13.6957 0.838869 13.4219C0.48728 13.1686 0.225995 12.8094 0.0932623 12.397C0.0395197 12.1992 0.00823491 11.996 8.65152e-08 11.7912V9.926C-0.000106396 9.62345 0.0980842 9.32905 0.279787 9.08713C0.606205 8.66794 0.885501 8.24826 1.21241 7.82907C1.53932 7.40988 1.81812 6.9902 2.14503 6.57101C2.23829 6.43112 2.37819 6.29123 2.47145 6.15182C2.48915 6.13345 2.50252 6.11136 2.51059 6.08715C2.51866 6.06295 2.52122 6.03725 2.51808 6.01193V3.45017C2.50169 2.8835 2.62937 2.32194 2.88917 1.81808C3.02906 1.58492 3.16895 1.39889 3.30836 1.16573C3.6305 0.792809 4.02731 0.491642 4.47315 0.281703C4.73907 0.16116 5.02204 0.0825099 5.31202 0.0485473C5.58987 0.00979724 5.87046 -0.00580012 6.15089 0.00191617H22.2735C22.6786 0.000429561 23.0781 0.0963902 23.4383 0.281703C23.9052 0.478256 24.3199 0.780743 24.6497 1.16524C24.9729 1.50245 25.1984 1.92119 25.302 2.37667C25.3487 2.60982 25.3953 2.79586 25.4419 3.02901C25.4886 3.40157 25.4419 3.77462 25.4886 4.14718V5.96334C25.493 6.09953 25.5421 6.23048 25.6285 6.3359C26.0015 6.84835 26.4207 7.3608 26.7933 7.87374C27.1192 8.33956 27.4456 8.75728 27.8182 9.22506C27.9058 9.34761 27.9545 9.49366 27.9581 9.64425V11.7878C27.9614 12.2136 27.8127 12.6266 27.5389 12.9526C27.2454 13.3249 26.8351 13.5875 26.3741 13.6982C26.1584 13.7357 25.9396 13.7517 25.7207 13.7458H25.5809V22.1355C25.5823 22.5406 25.4864 22.9401 25.3011 23.3003C24.9544 24.0762 24.3435 24.7038 23.5772 25.0713C23.2897 25.1854 22.9944 25.2787 22.6936 25.3506H5.82447C5.36844 25.3589 4.91831 25.2465 4.51978 25.0247C4.15989 24.8625 3.8292 24.6421 3.54102 24.3723C3.14806 23.9662 2.86011 23.4703 2.70215 22.9277C2.62902 22.669 2.58215 22.4036 2.56226 22.1355V13.8892C2.46949 13.8877 2.46949 13.8877 2.46949 13.8411ZM6.33741 23.8132V15.5669C6.34651 15.472 6.37424 15.3798 6.41899 15.2957C6.46375 15.2115 6.52466 15.137 6.59825 15.0764C6.67184 15.0158 6.75665 14.9703 6.84783 14.9426C6.93902 14.9148 7.03478 14.9053 7.12965 14.9145H12.1619C12.2427 14.9023 12.3252 14.9188 12.395 14.9612C12.5508 15.0025 12.6892 15.0927 12.7898 15.2185C12.8905 15.3443 12.9481 15.4991 12.9541 15.6602V23.8574H22.4134C22.6694 23.8127 22.9118 23.7098 23.1219 23.5566C23.3319 23.4034 23.504 23.204 23.6248 22.9739C23.7941 22.6933 23.8753 22.3685 23.858 22.0413V13.6084C23.7491 13.4761 23.6839 13.3134 23.6714 13.1426C23.6673 13.0395 23.6854 12.9368 23.7244 12.8413C23.7634 12.7458 23.8225 12.6599 23.8976 12.5892C23.9727 12.5185 24.0621 12.4648 24.1598 12.4316C24.2574 12.3984 24.3611 12.3866 24.4637 12.397H25.7698C25.8486 12.3955 25.9263 12.3782 25.9983 12.3462C26.0703 12.3142 26.1352 12.268 26.189 12.2104C26.2682 12.1035 26.3018 11.9695 26.2823 11.8379V10.8125C26.2823 10.6726 26.2823 10.6726 26.1424 10.6726H1.58448C1.49121 10.6726 1.49121 10.7192 1.49121 10.7659V11.884C1.48398 11.9646 1.50018 12.0456 1.53785 12.1172C1.56785 12.2285 1.63505 12.3262 1.72827 12.3941C1.82149 12.462 1.93513 12.4959 2.0503 12.4902H3.49488C3.67039 12.5169 3.82967 12.608 3.94165 12.7458C4.05364 12.8835 4.1103 13.0581 4.10059 13.2353C4.11282 13.3161 4.09632 13.3986 4.05396 13.4685C3.97869 13.6116 3.94631 13.7733 3.9607 13.9343V22.1807C3.95706 22.6206 4.10509 23.0485 4.37989 23.3921C4.68396 23.7271 5.09777 23.9425 5.54665 23.9993H5.59328C5.81417 23.8559 6.07653 23.7903 6.33889 23.8127L6.33741 23.8132ZM11.835 8.99534H25.5347L25.2549 8.57615C24.8824 8.0637 24.4627 7.55125 24.0901 7.03831C24.0435 6.99168 23.9969 6.94504 23.9502 6.94504H3.9607C3.89422 6.9421 3.82827 6.95806 3.7705 6.99107C3.71272 7.02408 3.66549 7.0728 3.63428 7.13157C3.30786 7.55076 2.98194 8.01511 2.65552 8.43626L2.23633 8.99534H11.836H11.835ZM7.87477 16.4509V23.8137H11.4629V16.4509H7.87477ZM23.9046 5.4072V3.40353C23.9121 3.29266 23.8962 3.18145 23.858 3.07712C23.7783 2.67592 23.5639 2.31398 23.2504 2.05126C22.9369 1.78854 22.543 1.64081 22.1341 1.63253H5.82447C5.55621 1.62148 5.28922 1.675 5.04595 1.78861C4.80268 1.90222 4.59025 2.07258 4.42652 2.28537C4.15493 2.57581 4.00492 2.95927 4.00733 3.3569V5.4072H23.9046Z" fill="#464B54"/>
<path d="M23.9041 5.40717H4.00731V3.35589C4.00541 2.95846 4.15576 2.57539 4.42748 2.28534C4.59823 2.08079 4.81189 1.91631 5.05331 1.80357C5.29473 1.69084 5.558 1.6326 5.82445 1.633H22.1336C22.5449 1.63271 22.9432 1.77736 23.2584 2.04154C23.5737 2.30573 23.7858 2.67255 23.8574 3.07758C23.8574 3.17084 23.9041 3.31074 23.9041 3.404C23.9507 4.10248 23.9041 4.75483 23.9041 5.40717ZM8.3872 2.93769C8.28894 2.93643 8.19142 2.95486 8.10039 2.99189C8.00937 3.02892 7.92667 3.08379 7.85719 3.15328C7.7877 3.22277 7.73282 3.30546 7.6958 3.39649C7.65877 3.48751 7.64034 3.58503 7.64159 3.68329C7.63636 3.78259 7.65207 3.88187 7.68769 3.9747C7.72331 4.06753 7.77805 4.15183 7.84836 4.22214C7.91866 4.29245 8.00297 4.34719 8.0958 4.38281C8.18863 4.41843 8.28791 4.43413 8.3872 4.4289C8.48888 4.43492 8.59072 4.4201 8.68648 4.38537C8.78223 4.35063 8.86989 4.2967 8.94406 4.22689C9.01824 4.15708 9.07738 4.07286 9.11785 3.97939C9.15833 3.88591 9.17928 3.78516 9.17944 3.68329C9.16471 3.4824 9.07514 3.29433 8.92846 3.15628C8.78177 3.01822 8.58862 2.94022 8.3872 2.93769ZM10.1577 3.68329C10.1629 3.8794 10.2431 4.06603 10.3819 4.20475C10.5206 4.34347 10.7072 4.42369 10.9033 4.4289C11.1072 4.43509 11.3053 4.36 11.4539 4.22018C11.6024 4.08035 11.6894 3.88723 11.6956 3.68329C11.7017 3.47936 11.6267 3.28133 11.4868 3.13276C11.347 2.98418 11.1539 2.89724 10.9499 2.89106C10.7417 2.89699 10.5436 2.98236 10.3963 3.12967C10.249 3.27697 10.1636 3.47505 10.1577 3.68329ZM5.03221 3.68329C5.02698 3.78259 5.04269 3.88187 5.07831 3.9747C5.11393 4.06753 5.16867 4.15183 5.23898 4.22214C5.30928 4.29245 5.39359 4.34719 5.48642 4.38281C5.57925 4.41843 5.67853 4.43413 5.77782 4.4289C5.97897 4.42548 6.17162 4.34718 6.31812 4.2093C6.46462 4.07142 6.55445 3.88387 6.57006 3.68329C6.57433 3.47989 6.49861 3.28294 6.35918 3.13478C6.21975 2.98663 6.02774 2.89911 5.82445 2.89106C5.61621 2.89699 5.41813 2.98236 5.27083 3.12967C5.12352 3.27697 5.03815 3.47505 5.03221 3.68329Z" fill="#E9E9E9"/>
<path d="M4.14824 13.0493C4.14216 12.876 4.07973 12.7095 3.97041 12.5749C3.8611 12.4404 3.71087 12.3451 3.54253 12.3037H2.09697C1.98339 12.3027 1.87296 12.2662 1.78109 12.1995C1.68922 12.1327 1.6205 12.0389 1.58451 11.9311C1.58451 11.8379 1.53788 11.7912 1.53788 11.698V10.5798C1.53788 10.4865 1.53788 10.4865 1.63115 10.4865H26.1876C26.3275 10.4865 26.3275 10.4865 26.3275 10.6264V11.6513C26.3372 11.7166 26.334 11.7831 26.318 11.8471C26.302 11.9112 26.2735 11.9714 26.2342 12.0244C26.1872 12.0899 26.1236 12.1417 26.0499 12.1745C25.9762 12.2073 25.8952 12.2198 25.815 12.2109H24.5103C24.4086 12.2048 24.3067 12.2195 24.2109 12.2541C24.1151 12.2888 24.0274 12.3428 23.9532 12.4126C23.879 12.4824 23.8198 12.5667 23.7794 12.6603C23.739 12.7538 23.7181 12.8546 23.7181 12.9565H22.087C22.0939 12.8908 22.0774 12.8247 22.0404 12.77C22.0038 12.6202 21.9212 12.4857 21.8042 12.3854C21.6872 12.2851 21.5416 12.2241 21.388 12.2109H18.6392C18.5591 12.202 18.478 12.2145 18.4043 12.2473C18.3307 12.2801 18.2671 12.3319 18.22 12.3974C18.1311 12.4605 18.059 12.5445 18.0102 12.642C17.9615 12.7395 17.9374 12.8475 17.9403 12.9565H15.9361C15.943 12.8908 15.9265 12.8247 15.8895 12.77C15.8529 12.6202 15.7703 12.4857 15.6533 12.3854C15.5363 12.2851 15.3907 12.2241 15.2371 12.2109H12.4883C12.4082 12.202 12.3271 12.2145 12.2535 12.2473C12.1798 12.2801 12.1162 12.3319 12.0692 12.3974C11.9803 12.4606 11.9083 12.5446 11.8596 12.6421C11.8109 12.7396 11.787 12.8476 11.7899 12.9565H9.7857C9.79264 12.8908 9.77612 12.8247 9.73907 12.77C9.70254 12.6202 9.61993 12.4857 9.5029 12.3854C9.38586 12.2851 9.2403 12.2241 9.08673 12.2109H6.33794C6.2578 12.202 6.17673 12.2145 6.10306 12.2473C6.02938 12.2801 5.96577 12.3319 5.91876 12.3974C5.82981 12.4605 5.75776 12.5445 5.70896 12.642C5.66016 12.7395 5.63613 12.8475 5.63897 12.9565H5.59234C5.11561 13.0385 4.63154 13.0696 4.14824 13.0493Z" fill="#959595"/>
<path d="M23.9041 16.4038V21.9956C23.9214 22.3228 23.8402 22.6477 23.6709 22.9282C23.5447 23.1542 23.3711 23.3502 23.162 23.5027C22.9529 23.6552 22.7132 23.7606 22.4595 23.8118H13.0007V16.3572H14.5396V20.877C14.5539 21.0532 14.6335 21.2178 14.7627 21.3385C14.892 21.4591 15.0617 21.5272 15.2385 21.5293H21.8533C22.0494 21.5241 22.236 21.4439 22.3747 21.3052C22.5135 21.1664 22.5937 20.9798 22.5989 20.7837V16.4038H23.9041Z" fill="#FBFCFE"/>
<path d="M23.9041 16.4043H22.646V15.6587C22.6409 15.5604 22.6162 15.4641 22.5735 15.3755C22.5307 15.2869 22.4706 15.2077 22.3968 15.1426C22.323 15.0775 22.237 15.0278 22.1437 14.9964C22.0505 14.965 21.9519 14.9525 21.8538 14.9597H15.2837C15.1728 14.9522 15.0616 14.9681 14.9573 15.0063C14.8198 15.0645 14.7024 15.1617 14.6196 15.286C14.5368 15.4102 14.4922 15.556 14.4914 15.7053V16.4509H12.9536V15.7053C12.9404 15.5464 12.8802 15.3951 12.7806 15.2706C12.681 15.1461 12.5466 15.0541 12.3945 15.0063C12.316 14.9954 12.2381 14.9798 12.1614 14.9597H7.12913C6.93938 14.9498 6.75283 15.0114 6.6062 15.1322C6.45957 15.2531 6.3635 15.4244 6.33689 15.6125V16.4514H4.05491V13.841C4.04052 13.68 4.0729 13.5183 4.14817 13.3752V13.0954H5.73118V13.1421C5.74876 13.3378 5.84069 13.5193 5.98806 13.6494C6.13542 13.7794 6.32701 13.848 6.52341 13.841H9.08616C9.28256 13.848 9.47415 13.7794 9.62152 13.6494C9.76889 13.5193 9.86082 13.3378 9.8784 13.1421V13.0954H11.8821V13.1421C11.8996 13.3378 11.9916 13.5193 12.1389 13.6494C12.2863 13.7794 12.4779 13.848 12.6743 13.841H15.2371C15.4335 13.848 15.625 13.7794 15.7724 13.6494C15.9198 13.5193 16.0117 13.3378 16.0293 13.1421V13.0954H18.033V13.1421C18.0505 13.3378 18.1425 13.5193 18.2898 13.6494C18.4372 13.7794 18.6288 13.848 18.8252 13.841H21.3879C21.5843 13.848 21.7759 13.7794 21.9233 13.6494C22.0707 13.5193 22.1626 13.3378 22.1802 13.1421V13.0954H23.7647C23.7602 13.1819 23.7745 13.2684 23.8067 13.3488C23.8389 13.4293 23.8882 13.5017 23.9512 13.5612V13.6079C23.9041 14.5405 23.9041 15.4721 23.9041 16.4043Z" fill="#E1E0E3"/>
<path d="M11.4163 23.8127H7.82816V16.4499H11.3697V23.4868C11.4049 23.5917 11.4207 23.7022 11.4163 23.8127Z" fill="#FBFCFE"/>
<path d="M4.05394 16.4038H6.33691V23.8618H5.68456C5.45981 23.8437 5.24097 23.7807 5.04092 23.6767C4.84088 23.5727 4.66368 23.4297 4.51976 23.2561C4.35281 23.1025 4.22069 22.9149 4.13229 22.7059C4.0439 22.4969 4.00129 22.2715 4.00731 22.0447V16.5471C4.0255 16.5284 4.03916 16.5057 4.04724 16.4808C4.05532 16.456 4.05761 16.4296 4.05394 16.4038Z" fill="#FBFCFE"/>
<path d="M12.2552 6.94455H15.6573C15.6573 7.03781 15.7039 7.13107 15.7039 7.22434C15.8438 7.83005 15.9837 8.38913 16.077 8.94822H11.836V8.85495L12.1153 7.59689C12.1619 7.41086 12.2085 7.17771 12.2552 6.94455Z" fill="#959595"/>
<path d="M21.2481 8.99485H17.66L17.3787 7.73679C17.3321 7.457 17.2388 7.22434 17.1922 6.94455H20.2212C20.2212 6.99118 20.2212 6.99118 20.2679 7.03781C20.5472 7.55026 20.8269 8.10935 21.0601 8.62229C21.1411 8.73635 21.2045 8.86194 21.2481 8.99485Z" fill="#959595"/>
<path d="M10.2515 8.99485H6.84983C6.84983 8.94821 6.84983 8.94821 6.89646 8.90158C7.12962 8.43576 7.36228 7.96896 7.59544 7.55026L7.87523 6.99118H10.6731V7.08444C10.6384 7.35425 10.5759 7.61974 10.4866 7.87668C10.438 8.20261 10.3447 8.62229 10.2515 8.99485Z" fill="#959595"/>
<path d="M5.1721 8.99485H2.28343L2.70262 8.43576C3.02904 8.01657 3.35496 7.55223 3.68138 7.13107C3.77464 7.03781 3.82127 6.94455 4.0078 6.94455H6.1975C6.0576 7.27097 5.87108 7.55026 5.73168 7.87717L5.1721 8.99485Z" fill="#959595"/>
<path d="M21.9476 6.94455H23.9979C24.0911 6.94455 24.0911 6.99118 24.1378 7.03781C24.5103 7.55026 24.93 8.06271 25.3026 8.57566L25.5823 8.99485H22.9725C22.8326 8.71506 22.6927 8.43576 22.5533 8.20261C22.3668 7.78342 22.1336 7.36423 21.9476 6.94455Z" fill="#959595"/>
<path d="M5.17214 8.99485L5.73171 7.87668C5.8716 7.55027 6.05813 7.27097 6.19753 6.94406H7.87527L7.59548 7.50314C7.36233 7.96896 7.12966 8.43577 6.89651 8.85446C6.89651 8.9011 6.89651 8.9011 6.84988 8.94773C6.29079 8.99485 5.73171 8.99485 5.17214 8.99485Z" fill="#FBFBFD"/>
<path d="M21.947 6.94455C22.1336 7.36374 22.3662 7.73679 22.5527 8.15598C22.6926 8.43577 22.8325 8.71506 22.9719 8.94822H21.2947C21.2505 8.83005 21.1876 8.71982 21.1082 8.6218C20.8284 8.10935 20.5491 7.55027 20.3159 7.03732C20.3159 6.99069 20.3159 6.99069 20.2693 6.94406L21.947 6.94455Z" fill="#FBFCFD"/>
<path d="M17.1941 6.94455C17.2407 7.22434 17.334 7.457 17.3806 7.73679L17.6599 8.99485H16.1226C15.9827 8.43576 15.8428 7.83005 15.7495 7.27097C15.7495 7.17771 15.7029 7.08444 15.7029 6.99118C16.1692 6.94455 16.6816 6.94455 17.1941 6.94455Z" fill="#FAFBFC"/>
<path d="M10.2515 8.99485C10.3447 8.62229 10.3914 8.24924 10.4846 7.83005C10.5193 7.56025 10.5818 7.29476 10.6712 7.03781V6.94455H12.2556C12.209 7.17771 12.1624 7.36374 12.1157 7.59689L11.8365 8.85495V8.94822C11.323 8.99485 10.8106 8.99485 10.2515 8.99485Z" fill="#FBFBFD"/>
<path d="M23.7642 13.094H22.2268C22.7382 13.0473 23.2528 13.0473 23.7642 13.094Z" fill="#CEC5C8"/>
<path d="M8.38771 2.9367C8.48598 2.93545 8.58349 2.95388 8.67452 2.9909C8.76555 3.02793 8.84824 3.0828 8.91773 3.15229C8.98722 3.22178 9.04209 3.30447 9.07912 3.3955C9.11614 3.48653 9.13457 3.58404 9.13332 3.68231C9.1333 3.78425 9.11244 3.88511 9.07202 3.9787C9.03161 4.07229 8.97249 4.15663 8.8983 4.22655C8.82411 4.29647 8.73641 4.35048 8.64059 4.38528C8.54477 4.42007 8.44285 4.43491 8.34108 4.42889C8.24278 4.43021 8.14521 4.41183 8.05412 4.37483C7.96304 4.33784 7.88029 4.28297 7.81075 4.21348C7.74121 4.14399 7.68629 4.06127 7.64923 3.97021C7.61218 3.87915 7.59373 3.78159 7.59498 3.68329C7.595 3.5813 7.61588 3.48039 7.65632 3.38677C7.69677 3.29314 7.75593 3.20878 7.83017 3.13886C7.90442 3.06893 7.99217 3.01493 8.08805 2.98017C8.18393 2.9454 8.28591 2.93061 8.38771 2.9367Z" fill="#464B54"/>
<path d="M10.1582 3.68328C10.1568 3.58494 10.1752 3.48731 10.2121 3.39617C10.2491 3.30503 10.304 3.22222 10.3735 3.15263C10.443 3.08304 10.5257 3.02807 10.6168 2.99099C10.7079 2.9539 10.8055 2.93544 10.9038 2.93669C11.0068 2.93284 11.1094 2.95107 11.2048 2.99017C11.3002 3.02927 11.386 3.08833 11.4567 3.16338C11.5273 3.23843 11.5811 3.32773 11.6143 3.42528C11.6476 3.52283 11.6595 3.62637 11.6494 3.72893C11.6493 3.83079 11.6283 3.93155 11.5879 4.02502C11.5474 4.1185 11.4882 4.20272 11.4141 4.27253C11.3399 4.34234 11.2522 4.39627 11.1565 4.431C11.0607 4.46574 10.9589 4.48055 10.8572 4.47454C10.665 4.4489 10.4884 4.35475 10.36 4.20939C10.2316 4.06404 10.16 3.87723 10.1582 3.68328Z" fill="#464B54"/>
<path d="M5.03222 3.68329C5.03083 3.58494 5.04917 3.48732 5.08613 3.39618C5.1231 3.30504 5.17795 3.22222 5.24745 3.15263C5.31695 3.08304 5.39969 3.02808 5.49079 2.99099C5.58188 2.9539 5.67948 2.93544 5.77782 2.9367C5.8809 2.93282 5.98362 2.95108 6.07905 2.99024C6.17448 3.02939 6.26041 3.08854 6.33106 3.1637C6.40171 3.23886 6.45544 3.32829 6.48862 3.42596C6.5218 3.52363 6.53367 3.62727 6.52343 3.72992C6.52722 3.83287 6.50893 3.93543 6.4698 4.03073C6.43067 4.12602 6.3716 4.21184 6.29656 4.28242C6.22151 4.353 6.13224 4.4067 6.03472 4.43993C5.93721 4.47315 5.83372 4.48512 5.73119 4.47503C5.53907 4.44889 5.36275 4.35453 5.23443 4.20918C5.10611 4.06382 5.03433 3.87717 5.03222 3.68329Z" fill="#464B54"/>
<path d="M5.78029 13.1421V13.0954C5.77745 12.9864 5.80149 12.8784 5.85029 12.7809C5.89908 12.6834 5.97114 12.5994 6.06008 12.5363C6.17972 12.4364 6.3249 12.3718 6.47927 12.3498H9.22805C9.386 12.3484 9.53911 12.4043 9.65905 12.5071C9.77898 12.6098 9.85762 12.7526 9.8804 12.9089C9.87342 12.9746 9.88994 13.0407 9.92703 13.0954V13.1421C9.90945 13.3378 9.81751 13.5193 9.67015 13.6494C9.52278 13.7794 9.33119 13.848 9.13479 13.841H6.57008C6.47214 13.8479 6.37381 13.8351 6.28084 13.8036C6.18787 13.772 6.10213 13.7222 6.0286 13.6572C5.95508 13.5921 5.89526 13.513 5.85262 13.4246C5.80999 13.3362 5.7854 13.2401 5.78029 13.1421Z" fill="#464B54"/>
<path d="M11.8826 13.1421V13.0954C11.8797 12.9864 11.9038 12.8784 11.9526 12.7809C12.0013 12.6834 12.0734 12.5994 12.1623 12.5363C12.282 12.4364 12.4272 12.3718 12.5815 12.3498H15.3303C15.4883 12.3484 15.6414 12.4043 15.7613 12.5071C15.8813 12.6098 15.9599 12.7526 15.9827 12.9089C15.9757 12.9746 15.9922 13.0407 16.0293 13.0954V13.1421C16.0118 13.3381 15.9197 13.52 15.772 13.6502C15.6243 13.7804 15.4323 13.8488 15.2356 13.8415H12.6748C12.4783 13.8485 12.2867 13.7798 12.1393 13.6497C11.9919 13.5196 11.9 13.3379 11.8826 13.1421Z" fill="#464B54"/>
<path d="M22.1336 13.1421C22.116 13.3378 22.0241 13.5194 21.8767 13.6494C21.7294 13.7794 21.5378 13.848 21.3414 13.8411H18.7786C18.5822 13.848 18.3906 13.7794 18.2433 13.6494C18.0959 13.5194 18.004 13.3378 17.9864 13.1421V13.0955C17.9836 12.9865 18.0076 12.8784 18.0564 12.7809C18.1052 12.6834 18.1772 12.5994 18.2662 12.5364C18.3858 12.4364 18.531 12.3718 18.6854 12.3498H21.4342C21.5926 12.3478 21.7464 12.4035 21.8668 12.5064C21.9873 12.6094 22.0662 12.7526 22.089 12.9094C22.082 12.9751 22.0985 13.0412 22.1356 13.0959L22.1336 13.1421Z" fill="#464B54"/>
<path d="M22.646 15.6587V20.7847C22.6408 20.9811 22.5603 21.168 22.4212 21.3068C22.282 21.4456 22.0949 21.5256 21.8985 21.5303H15.2837C15.1046 21.5361 14.9305 21.4708 14.7995 21.3485C14.6685 21.2262 14.5913 21.057 14.5847 20.8779V15.6121C14.5855 15.4628 14.63 15.3169 14.7128 15.1927C14.7956 15.0684 14.913 14.9712 15.0506 14.9131C15.1549 14.8749 15.2661 14.859 15.377 14.8665H21.9476C22.1398 14.8926 22.3161 14.987 22.4445 15.1325C22.5728 15.278 22.6445 15.4647 22.6465 15.6587H22.646ZM16.0293 19.992H21.1087V16.4509H16.076V16.8701C16.0293 17.898 16.0293 18.9209 16.0293 19.9924V19.992Z" fill="#464B54"/>
<path d="M16.0294 19.9919V16.4504H21.0621V19.9919H16.0294Z" fill="#FBFCFE"/>
</svg>
