<svg width="25" height="24" viewBox="0 0 25 24" fill="none" xmlns="http://www.w3.org/2000/svg">
<path d="M23.25 19.5V20.75C23.2482 21.4125 22.9842 22.0473 22.5157 22.5157C22.0473 22.9842 21.4125 23.2482 20.75 23.25H3.25C2.58696 23.25 1.95107 22.9866 1.48223 22.5178C1.01339 22.0489 0.75 21.413 0.75 20.75V3.25C0.75 2.58696 1.01339 1.95107 1.48223 1.48223C1.95107 1.01339 2.58696 0.75 3.25 0.75H20.75C21.4125 0.751847 22.0473 1.01583 22.5157 1.48427C22.9842 1.95271 23.2482 2.58753 23.25 3.25V4.5H12C11.337 4.5 10.7011 4.76339 10.2322 5.23223C9.76339 5.70107 9.5 6.33696 9.5 7V17C9.5 17.3283 9.56466 17.6534 9.6903 17.9567C9.81594 18.26 10.0001 18.5356 10.2322 18.7678C10.4644 18.9999 10.74 19.1841 11.0433 19.3097C11.3466 19.4353 11.6717 19.5 12 19.5H23.25ZM12 17H24.5V7H12V17ZM17 13.875C16.6292 13.875 16.2666 13.765 15.9583 13.559C15.65 13.353 15.4096 13.0601 15.2677 12.7175C15.1258 12.3749 15.0887 11.9979 15.161 11.6342C15.2334 11.2705 15.412 10.9364 15.6742 10.6742C15.9364 10.412 16.2705 10.2334 16.6342 10.161C16.9979 10.0887 17.3749 10.1258 17.7175 10.2677C18.0601 10.4096 18.353 10.65 18.559 10.9583C18.765 11.2666 18.875 11.6292 18.875 12C18.8754 12.2463 18.8272 12.4903 18.7331 12.718C18.639 12.9457 18.5009 13.1525 18.3267 13.3267C18.1525 13.5009 17.9457 13.639 17.718 13.7331C17.4903 13.8272 17.2463 13.8754 17 13.875Z" fill="white"/>
</svg>
