<svg width="20" height="20" viewBox="0 0 20 20" fill="none" xmlns="http://www.w3.org/2000/svg">
<path d="M18.875 16.2163V17.258C18.8735 17.81 18.6535 18.339 18.2631 18.7294C17.8727 19.1198 17.3437 19.3398 16.7917 19.3413H2.20833C1.6558 19.3413 1.1259 19.1218 0.735194 18.7311C0.344493 18.3404 0.125 17.8105 0.125 17.258V2.67464C0.125 2.12211 0.344493 1.5922 0.735194 1.2015C1.1259 0.810802 1.6558 0.591309 2.20833 0.591309H16.7917C17.3437 0.592848 17.8727 0.812836 18.2631 1.2032C18.6535 1.59357 18.8735 2.12258 18.875 2.67464V3.71631H9.5C8.94747 3.71631 8.41756 3.9358 8.02686 4.3265C7.63616 4.7172 7.41667 5.24711 7.41667 5.79964V14.133C7.41667 14.4066 7.47055 14.6775 7.57525 14.9302C7.67995 15.183 7.83341 15.4127 8.02686 15.6061C8.22032 15.7996 8.44998 15.953 8.70274 16.0577C8.9555 16.1624 9.22641 16.2163 9.5 16.2163H18.875ZM9.5 14.133H19.9167V5.79964H9.5V14.133ZM13.6667 11.5288C13.3576 11.5288 13.0555 11.4372 12.7986 11.2655C12.5416 11.0938 12.3414 10.8498 12.2231 10.5643C12.1048 10.2787 12.0739 9.96457 12.1342 9.66148C12.1945 9.35838 12.3433 9.07997 12.5618 8.86145C12.7803 8.64293 13.0587 8.49412 13.3618 8.43383C13.6649 8.37354 13.9791 8.40448 14.2646 8.52275C14.5501 8.64101 14.7941 8.84128 14.9658 9.09823C15.1375 9.35518 15.2292 9.65728 15.2292 9.96631C15.2295 10.1716 15.1893 10.3749 15.1109 10.5646C15.0325 10.7544 14.9174 10.9267 14.7723 11.0719C14.6271 11.2171 14.4547 11.3321 14.265 11.4105C14.0753 11.4889 13.872 11.5291 13.6667 11.5288Z" fill="#1A8191"/>
</svg>
