<svg width="25" height="25" viewBox="0 0 25 25" fill="none" xmlns="http://www.w3.org/2000/svg">
<path d="M12.2209 0.433995C9.83546 0.433798 7.50349 1.14099 5.51994 2.46615C3.53638 3.79131 1.99034 5.67492 1.07732 7.87876C0.164295 10.0826 -0.0746956 12.5077 0.390568 14.8474C0.855831 17.187 2.00445 19.3362 3.69117 21.0231C5.37789 22.7099 7.52696 23.8587 9.86659 24.3242C12.2062 24.7896 14.6313 24.5508 16.8353 23.638C19.0392 22.7252 20.9229 21.1793 22.2482 19.1958C23.5735 17.2124 24.2809 14.8805 24.2809 12.495C24.2799 9.29672 23.009 6.22972 20.7475 3.9681C18.4861 1.70649 15.4192 0.435321 12.2209 0.433995ZM12.2209 4.052C12.9365 4.052 13.636 4.26419 14.231 4.66174C14.826 5.05929 15.2897 5.62434 15.5635 6.28545C15.8374 6.94655 15.909 7.67401 15.7694 8.37583C15.6298 9.07765 15.2852 9.72232 14.7793 10.2283C14.2733 10.7343 13.6286 11.0789 12.9268 11.2185C12.225 11.3581 11.4975 11.2864 10.8364 11.0126C10.1753 10.7388 9.61023 10.275 9.21268 9.68005C8.81513 9.08507 8.60294 8.38557 8.60294 7.67C8.60228 7.19469 8.69542 6.72392 8.877 6.28467C9.05859 5.84541 9.32507 5.44631 9.66116 5.11022C9.99725 4.77412 10.3964 4.50765 10.8356 4.32606C11.2749 4.14447 11.7456 4.05134 12.2209 4.052ZM12.2209 21.178C10.788 21.1779 9.37735 20.8231 8.11479 20.1454C6.85223 19.4677 5.77699 18.4881 4.98494 17.294C5.02094 14.894 9.80894 13.579 12.2209 13.579C14.6329 13.579 19.4209 14.894 19.4569 17.294C18.6649 18.4881 17.5897 19.4677 16.3271 20.1454C15.0645 20.8231 13.6539 21.1779 12.2209 21.178Z" fill="#4E4E4E"/>
</svg>
