<svg width="21" height="25" viewBox="0 0 21 25" fill="none" xmlns="http://www.w3.org/2000/svg">
<path d="M10.222 0.890013C9.20911 0.826848 8.19443 0.980816 7.24589 1.34161C6.29735 1.7024 5.43684 2.26168 4.72198 2.98201C3.57615 4.37556 2.99072 6.14609 3.07998 7.94801V8.92401H5.75798V7.94801C5.66996 6.80789 6.00613 5.67544 6.70198 4.76801C7.16357 4.32181 7.71791 3.98292 8.32548 3.7755C8.93305 3.56808 9.57889 3.49723 10.217 3.56801C12.097 3.56801 13.108 4.04601 13.732 4.74001C14.4307 5.6569 14.7681 6.79861 14.68 7.94801V8.92401H17.358V7.94801C17.4498 6.13683 16.8629 4.3565 15.712 2.95501C14.9955 2.24137 14.1355 1.6882 13.189 1.33219C12.2425 0.976174 11.2312 0.825451 10.222 0.890013ZM3.07998 9.81701C2.37068 9.81728 1.69043 10.0988 1.18841 10.5999C0.686384 11.101 0.403569 11.7807 0.401981 12.49V21.417C0.401455 21.7691 0.470328 22.1178 0.604663 22.4432C0.738997 22.7686 0.936158 23.0644 1.18487 23.3136C1.43359 23.5628 1.72898 23.7605 2.05415 23.8954C2.37933 24.0304 2.72792 24.0999 3.07998 24.1H17.363C18.0732 24.0997 18.7542 23.8175 19.2563 23.3154C19.7585 22.8132 20.0407 22.1322 20.041 21.422V12.49C20.0407 11.7798 19.7585 11.0988 19.2563 10.5967C18.7542 10.0945 18.0732 9.81228 17.363 9.81201L3.07998 9.81701ZM4.86498 15.173C5.21802 15.173 5.56313 15.2777 5.85667 15.4738C6.15022 15.67 6.379 15.9488 6.51411 16.2749C6.64921 16.6011 6.68456 16.96 6.61568 17.3062C6.54681 17.6525 6.3768 17.9706 6.12717 18.2202C5.87753 18.4698 5.55947 18.6398 5.21322 18.7087C4.86696 18.7776 4.50806 18.7422 4.18189 18.6071C3.85572 18.472 3.57695 18.2432 3.38081 17.9497C3.18467 17.6562 3.07998 17.3111 3.07998 16.958C3.07985 16.7236 3.12593 16.4914 3.21559 16.2748C3.30525 16.0581 3.43672 15.8613 3.6025 15.6955C3.76828 15.5298 3.96511 15.3983 4.18174 15.3086C4.39836 15.219 4.63053 15.1729 4.86498 15.173ZM10.221 15.173C10.574 15.173 10.9191 15.2777 11.2127 15.4738C11.5062 15.67 11.735 15.9488 11.8701 16.2749C12.0052 16.6011 12.0406 16.96 11.9717 17.3062C11.9028 17.6525 11.7328 17.9706 11.4832 18.2202C11.2335 18.4698 10.9155 18.6398 10.5692 18.7087C10.223 18.7776 9.86406 18.7422 9.53789 18.6071C9.21172 18.472 8.93295 18.2432 8.73681 17.9497C8.54067 17.6562 8.43598 17.3111 8.43598 16.958C8.43585 16.7235 8.48196 16.4912 8.57168 16.2745C8.6614 16.0578 8.79297 15.861 8.95885 15.6952C9.12474 15.5294 9.32169 15.3979 9.53843 15.3083C9.75517 15.2187 9.98745 15.1727 10.222 15.173H10.221ZM15.577 15.173C15.93 15.173 16.2751 15.2777 16.5687 15.4738C16.8622 15.67 17.091 15.9488 17.2261 16.2749C17.3612 16.6011 17.3966 16.96 17.3277 17.3062C17.2588 17.6525 17.0888 17.9706 16.8392 18.2202C16.5895 18.4698 16.2715 18.6398 15.9252 18.7087C15.579 18.7776 15.2201 18.7422 14.8939 18.6071C14.5677 18.472 14.2889 18.2432 14.0928 17.9497C13.8967 17.6562 13.792 17.3111 13.792 16.958C13.7918 16.7235 13.838 16.4912 13.9277 16.2745C14.0174 16.0578 14.149 15.861 14.3149 15.6952C14.4807 15.5294 14.6777 15.3979 14.8944 15.3083C15.1112 15.2187 15.3435 15.1727 15.578 15.173H15.577Z" fill="#4E4E4E"/>
</svg>
