<svg width="72" height="72" viewBox="0 0 72 72" fill="none" xmlns="http://www.w3.org/2000/svg">
<path d="M36 72C55.8823 72 72 55.8823 72 36C72 16.1177 55.8823 0 36 0C16.1177 0 0 16.1177 0 36C0 55.8823 16.1177 72 36 72Z" fill="#CACACA"/>
<path d="M36.002 64.9775C52.0047 64.9775 64.9775 52.0047 64.9775 36.002C64.9775 19.9993 52.0047 7.02655 36.002 7.02655C19.9993 7.02655 7.02658 19.9993 7.02658 36.002C7.02658 52.0047 19.9993 64.9775 36.002 64.9775Z" fill="#F5F5F5"/>
<path d="M36.002 66.7307C52.973 66.7307 66.7307 52.973 66.7307 36.002C66.7307 19.0311 52.973 5.27344 36.002 5.27344C19.0311 5.27344 5.27344 19.0311 5.27344 36.002C5.27344 52.973 19.0311 66.7307 36.002 66.7307Z" stroke="#004D24" stroke-width="5"/>
<path d="M19.5568 37.6642H18.8913C18.283 37.6689 17.693 37.4566 17.2272 37.0653C16.7249 36.7035 16.3516 36.1903 16.162 35.601C16.0852 35.3185 16.0405 35.0282 16.0288 34.7357V32.0709C16.0286 31.6386 16.1689 31.218 16.4285 30.8724C16.8948 30.2736 17.2939 29.674 17.7609 29.0751C18.2279 28.4762 18.6263 27.8766 19.0933 27.2778C19.2265 27.0779 19.4264 26.878 19.5596 26.6789C19.5849 26.6526 19.604 26.6211 19.6155 26.5865C19.6271 26.5519 19.6307 26.5152 19.6263 26.479V22.8191C19.6028 22.0096 19.7853 21.2073 20.1564 20.4874C20.3563 20.1543 20.5561 19.8886 20.7553 19.5555C21.2155 19.0227 21.7824 18.5924 22.4194 18.2925C22.7993 18.1203 23.2036 18.0079 23.6178 17.9594C24.0148 17.904 24.4157 17.8817 24.8163 17.8928H47.85C48.4287 17.8906 48.9994 18.0277 49.514 18.2925C50.1811 18.5733 50.7736 19.0054 51.2448 19.5548C51.7066 20.0365 52.0287 20.6348 52.1767 21.2855C52.2434 21.6186 52.31 21.8844 52.3766 22.2175C52.4432 22.7497 52.3766 23.2827 52.4432 23.8149V26.4096C52.4495 26.6042 52.5197 26.7912 52.6431 26.9419C53.176 27.674 53.7749 28.4061 54.3072 29.1389C54.7728 29.8044 55.2392 30.4012 55.7714 31.0695C55.8965 31.2446 55.9662 31.4532 55.9713 31.6684V34.7308C55.976 35.3391 55.7637 35.9291 55.3724 36.3949C54.9531 36.9268 54.3669 37.302 53.7083 37.4601C53.4002 37.5137 53.0875 37.5365 52.7749 37.5281H52.5751V49.5141C52.5772 50.0928 52.4401 50.6636 52.1753 51.1782C51.68 52.2867 50.8072 53.1833 49.7125 53.7083C49.3018 53.8713 48.88 54.0046 48.4502 54.1074H24.35C23.6984 54.1193 23.0554 53.9586 22.486 53.6417C21.9718 53.41 21.4994 53.0951 21.0877 52.7097C20.5263 52.1295 20.1149 51.4211 19.8892 50.6459C19.7847 50.2763 19.7178 49.8971 19.6894 49.5141V37.7329C19.5568 37.7308 19.5568 37.7308 19.5568 37.6642ZM25.0828 51.911V40.1298C25.0958 39.9942 25.1354 39.8626 25.1993 39.7423C25.2633 39.6221 25.3503 39.5157 25.4554 39.4291C25.5605 39.3425 25.6817 39.2775 25.812 39.2379C25.9423 39.1982 26.0791 39.1846 26.2146 39.1978H33.404C33.5194 39.1804 33.6372 39.2039 33.7371 39.2644C33.9596 39.3234 34.1573 39.4523 34.301 39.6321C34.4448 39.8118 34.5271 40.033 34.5358 40.263V51.9741H48.0498C48.4157 51.9102 48.762 51.7632 49.062 51.5443C49.3621 51.3255 49.6079 51.0407 49.7805 50.7118C50.0224 50.3111 50.1384 49.8469 50.1136 49.3794V37.3318C49.9581 37.1428 49.865 36.9103 49.8471 36.6663C49.8413 36.519 49.8671 36.3723 49.9228 36.2359C49.9786 36.0995 50.063 35.9766 50.1703 35.8757C50.2775 35.7747 50.4053 35.6979 50.5448 35.6505C50.6843 35.6031 50.8324 35.5863 50.979 35.601H52.845C52.9576 35.599 53.0686 35.5743 53.1715 35.5285C53.2744 35.4827 53.367 35.4168 53.4439 35.3346C53.5571 35.1818 53.605 34.9904 53.5772 34.8023V33.3374C53.5772 33.1375 53.5772 33.1375 53.3773 33.1375H18.2925C18.1592 33.1375 18.1592 33.2041 18.1592 33.2708V34.8682C18.1489 34.9834 18.172 35.099 18.2258 35.2013C18.2687 35.3604 18.3647 35.5 18.4979 35.5969C18.6311 35.6939 18.7934 35.7424 18.958 35.7343H21.0218C21.2725 35.7724 21.5001 35.9026 21.66 36.0994C21.82 36.2962 21.901 36.5455 21.8871 36.7988C21.9046 36.9142 21.881 37.0321 21.8205 37.1319C21.713 37.3363 21.6667 37.5674 21.6873 37.7974V49.5786C21.6821 50.2072 21.8935 50.8184 22.2861 51.3093C22.7206 51.788 23.3117 52.0957 23.953 52.1768H24.0197C24.3352 51.972 24.7101 51.8783 25.0849 51.9103L25.0828 51.911ZM32.9369 30.7413H52.5091L52.1094 30.1424C51.5772 29.4103 50.9776 28.6782 50.4453 27.9454C50.3787 27.8787 50.3121 27.8121 50.2455 27.8121H21.6873C21.5923 27.8079 21.4981 27.8307 21.4155 27.8779C21.333 27.925 21.2655 27.9946 21.2209 28.0786C20.7546 28.6775 20.2889 29.3409 19.8226 29.9426L19.2237 30.7413H32.9383H32.9369ZM27.2791 41.3928V51.9117H32.4054V41.3928H27.2791ZM50.1802 25.6151V22.7525C50.191 22.5941 50.1683 22.4352 50.1136 22.2862C49.9998 21.713 49.6935 21.1959 49.2456 20.8206C48.7977 20.4452 48.2351 20.2342 47.6508 20.2224H24.35C23.9667 20.2066 23.5853 20.283 23.2377 20.4453C22.8902 20.6076 22.5867 20.851 22.3528 21.155C21.9647 21.57 21.7504 22.1178 21.7539 22.6859V25.6151H50.1802Z" fill="#464B54"/>
<path d="M50.1796 25.6151H21.7539V22.6845C21.7512 22.1167 21.966 21.5694 22.3542 21.155C22.5981 20.8628 22.9034 20.6278 23.2483 20.4668C23.5932 20.3057 23.9693 20.2225 24.35 20.2231H47.6501C48.2378 20.2227 48.8067 20.4293 49.2571 20.8067C49.7075 21.1842 50.0106 21.7082 50.1129 22.2869C50.1129 22.4201 50.1796 22.62 50.1796 22.7532C50.2462 23.7511 50.1796 24.6831 50.1796 25.6151ZM28.0113 22.087C27.8709 22.0852 27.7316 22.1116 27.6015 22.1645C27.4715 22.2174 27.3533 22.2958 27.2541 22.395C27.1548 22.4943 27.0764 22.6124 27.0235 22.7425C26.9706 22.8725 26.9443 23.0119 26.946 23.1522C26.9386 23.2941 26.961 23.4359 27.0119 23.5686C27.0628 23.7012 27.141 23.8216 27.2414 23.9221C27.3419 24.0225 27.4623 24.1007 27.5949 24.1516C27.7276 24.2025 27.8694 24.2249 28.0113 24.2175C28.1565 24.2261 28.302 24.2049 28.4388 24.1553C28.5756 24.1056 28.7009 24.0286 28.8068 23.9289C28.9128 23.8291 28.9973 23.7088 29.0551 23.5753C29.1129 23.4417 29.1429 23.2978 29.1431 23.1522C29.1221 22.8652 28.9941 22.5966 28.7845 22.3993C28.575 22.2021 28.299 22.0906 28.0113 22.087ZM30.5407 23.1522C30.5482 23.4324 30.6628 23.699 30.861 23.8972C31.0591 24.0954 31.3258 24.21 31.6059 24.2175C31.8973 24.2263 32.1802 24.119 32.3925 23.9193C32.6047 23.7195 32.7289 23.4436 32.7378 23.1522C32.7466 22.8609 32.6393 22.578 32.4396 22.3657C32.2398 22.1535 31.9639 22.0292 31.6726 22.0204C31.3751 22.0289 31.0921 22.1508 30.8816 22.3613C30.6712 22.5718 30.5492 22.8547 30.5407 23.1522ZM23.2181 23.1522C23.2107 23.2941 23.2331 23.4359 23.284 23.5686C23.3349 23.7012 23.4131 23.8216 23.5135 23.9221C23.614 24.0225 23.7344 24.1007 23.867 24.1516C23.9997 24.2025 24.1415 24.2249 24.2834 24.2175C24.5707 24.2126 24.846 24.1007 25.0553 23.9037C25.2646 23.7067 25.3929 23.4388 25.4152 23.1522C25.4213 22.8617 25.3131 22.5803 25.1139 22.3686C24.9147 22.1569 24.6404 22.0319 24.35 22.0204C24.0525 22.0289 23.7695 22.1508 23.559 22.3613C23.3486 22.5718 23.2266 22.8547 23.2181 23.1522Z" fill="#E9E9E9"/>
<path d="M21.9552 36.5329C21.9465 36.2854 21.8573 36.0475 21.7011 35.8552C21.5449 35.663 21.3303 35.5269 21.0898 35.4677H19.0246C18.8623 35.4663 18.7046 35.4142 18.5733 35.3188C18.4421 35.2234 18.3439 35.0894 18.2925 34.9355C18.2925 34.8022 18.2259 34.7356 18.2259 34.6024V33.0049C18.2259 32.8717 18.2259 32.8717 18.3591 32.8717H53.4418C53.6417 32.8717 53.6417 32.8717 53.6417 33.0715V34.5358C53.6556 34.629 53.651 34.724 53.6281 34.8155C53.6053 34.9069 53.5646 34.993 53.5085 35.0687C53.4413 35.1623 53.3504 35.2363 53.2452 35.2832C53.1399 35.33 53.0241 35.348 52.9096 35.3352H51.0456C50.9003 35.3264 50.7547 35.3474 50.6178 35.397C50.481 35.4465 50.3556 35.5235 50.2496 35.6233C50.1436 35.7231 50.0591 35.8435 50.0014 35.9771C49.9436 36.1108 49.9138 36.2548 49.9138 36.4004H47.5835C47.5934 36.3065 47.5698 36.2121 47.5169 36.1339C47.4647 35.92 47.3467 35.7278 47.1795 35.5845C47.0123 35.4412 46.8043 35.354 46.5849 35.3352H42.6578C42.5433 35.3224 42.4275 35.3404 42.3223 35.3872C42.217 35.4341 42.1261 35.5081 42.059 35.6017C41.9319 35.6918 41.8289 35.8118 41.7592 35.9511C41.6895 36.0904 41.6552 36.2447 41.6592 36.4004H38.796C38.8059 36.3065 38.7823 36.2121 38.7294 36.1339C38.6772 35.92 38.5592 35.7278 38.392 35.5845C38.2248 35.4412 38.0168 35.354 37.7974 35.3352H33.8703C33.7558 35.3224 33.64 35.3404 33.5347 35.3872C33.4295 35.4341 33.3386 35.5081 33.2714 35.6017C33.1445 35.6918 33.0417 35.8119 32.9721 35.9512C32.9025 36.0905 32.8683 36.2448 32.8724 36.4004H30.0092C30.0191 36.3065 29.9955 36.2121 29.9426 36.1339C29.8904 35.92 29.7723 35.7278 29.6051 35.5845C29.4379 35.4412 29.23 35.354 29.0106 35.3352H25.0835C24.969 35.3224 24.8532 35.3404 24.7479 35.3872C24.6427 35.4341 24.5518 35.5081 24.4846 35.6017C24.3576 35.6918 24.2546 35.8118 24.1849 35.9511C24.1152 36.0904 24.0808 36.2447 24.0849 36.4004H24.0183C23.3372 36.5175 22.6456 36.5619 21.9552 36.5329Z" fill="#959595"/>
<path d="M50.1796 41.3254V49.3142C50.2044 49.7817 50.0883 50.2458 49.8465 50.6466C49.6661 50.9694 49.4181 51.2494 49.1193 51.4673C48.8206 51.6852 48.4782 51.8358 48.1157 51.9089H34.6024V41.2588H36.8009V47.716C36.8213 47.9679 36.935 48.203 37.1197 48.3754C37.3044 48.5478 37.5468 48.645 37.7995 48.648H47.2497C47.5298 48.6406 47.7965 48.526 47.9947 48.3278C48.1928 48.1296 48.3075 47.863 48.3149 47.5828V41.3254H50.1796Z" fill="#FBFCFE"/>
<path d="M50.1795 41.3261H48.3822V40.2609C48.3749 40.1205 48.3397 39.9829 48.2785 39.8563C48.2174 39.7297 48.1316 39.6166 48.0262 39.5236C47.9208 39.4306 47.7979 39.3596 47.6646 39.3147C47.5314 39.2698 47.3906 39.252 47.2503 39.2623H37.8639C37.7056 39.2516 37.5467 39.2743 37.3976 39.3289C37.2012 39.412 37.0334 39.5509 36.9151 39.7284C36.7969 39.9059 36.7332 40.1142 36.7321 40.3275V41.3927H34.5351V40.3275C34.5162 40.1005 34.4302 39.8843 34.2879 39.7064C34.1457 39.5285 33.9536 39.3971 33.7363 39.3289C33.6241 39.3132 33.5128 39.291 33.4032 39.2623H26.2139C25.9428 39.2482 25.6763 39.3361 25.4668 39.5088C25.2573 39.6814 25.1201 39.9262 25.082 40.1949V41.3934H21.8219V37.6641C21.8013 37.4341 21.8476 37.203 21.9551 36.9986V36.5989H24.2167V36.6655C24.2418 36.9451 24.3731 37.2045 24.5837 37.3903C24.7942 37.576 25.0679 37.674 25.3485 37.6641H29.0098C29.2904 37.674 29.5641 37.576 29.7747 37.3903C29.9852 37.2045 30.1165 36.9451 30.1416 36.6655V36.5989H33.0042V36.6655C33.0293 36.9451 33.1607 37.2045 33.3712 37.3903C33.5817 37.576 33.8555 37.674 34.136 37.6641H37.7973C38.0779 37.674 38.3516 37.576 38.5622 37.3903C38.7727 37.2045 38.904 36.9451 38.9292 36.6655V36.5989H41.7917V36.6655C41.8168 36.9451 41.9482 37.2045 42.1587 37.3903C42.3692 37.576 42.643 37.674 42.9236 37.6641H46.5848C46.8654 37.674 47.1392 37.576 47.3497 37.3903C47.5602 37.2045 47.6916 36.9451 47.7167 36.6655V36.5989H49.9804C49.9739 36.7225 49.9945 36.846 50.0405 36.9609C50.0865 37.0758 50.1569 37.1794 50.2468 37.2644V37.331C50.1795 38.6634 50.1795 39.9944 50.1795 41.3261Z" fill="#E1E0E3"/>
<path d="M32.3388 51.9103H27.2125V41.3914H32.2721V51.4447C32.3225 51.5945 32.3451 51.7523 32.3388 51.9103Z" fill="#FBFCFE"/>
<path d="M21.8205 41.3255H25.082V51.9804H24.1501C23.829 51.9545 23.5163 51.8646 23.2305 51.716C22.9447 51.5674 22.6916 51.3631 22.486 51.1151C22.2474 50.8956 22.0587 50.6276 21.9324 50.329C21.8061 50.0305 21.7452 49.7084 21.7539 49.3844V41.5302C21.7798 41.5034 21.7993 41.4711 21.8109 41.4356C21.8224 41.4001 21.8257 41.3624 21.8205 41.3255Z" fill="#FBFCFE"/>
<path d="M33.5372 27.8115H38.3977C38.3977 27.9447 38.4643 28.0779 38.4643 28.2112C38.6642 29.0765 38.864 29.8753 38.9973 30.674H32.9384V30.5408L33.3374 28.7434C33.404 28.4777 33.4706 28.1446 33.5372 27.8115Z" fill="#959595"/>
<path d="M46.3851 30.7406H41.2588L40.857 28.9433C40.7904 28.5436 40.6572 28.2112 40.5905 27.8115H44.918C44.918 27.8781 44.918 27.8781 44.9847 27.9447C45.3837 28.6768 45.7834 29.4756 46.1165 30.2084C46.2322 30.3713 46.3227 30.5508 46.3851 30.7406Z" fill="#959595"/>
<path d="M30.6746 30.7405H25.8148C25.8148 30.6739 25.8148 30.6739 25.8815 30.6073C26.2146 29.9418 26.547 29.2749 26.8801 28.6767L27.2798 27.878H31.277V28.0112C31.2274 28.3967 31.1381 28.776 31.0105 29.1431C30.9411 29.6087 30.8078 30.2083 30.6746 30.7405Z" fill="#959595"/>
<path d="M23.418 30.7406H19.291L19.8899 29.9419C20.3563 29.343 20.8219 28.6796 21.2882 28.0779C21.4215 27.9447 21.4881 27.8115 21.7546 27.8115H24.8829C24.6831 28.2778 24.4166 28.6768 24.2174 29.1439L23.418 30.7406Z" fill="#959595"/>
<path d="M47.3844 27.8115H50.3135C50.4468 27.8115 50.4468 27.8781 50.5134 27.9447C51.0457 28.6768 51.6452 29.4089 52.1775 30.1418L52.5772 30.7406H48.8486C48.6487 30.3409 48.4489 29.9419 48.2497 29.6088C47.9832 29.0099 47.6501 28.411 47.3844 27.8115Z" fill="#959595"/>
<path d="M23.418 30.7406L24.2174 29.1431C24.4173 28.6768 24.6837 28.2778 24.8829 27.8107H27.2798L26.8801 28.6095C26.547 29.275 26.2146 29.9419 25.8815 30.5401C25.8815 30.6067 25.8815 30.6067 25.8149 30.6733C25.0161 30.7406 24.2174 30.7406 23.418 30.7406Z" fill="#FBFBFD"/>
<path d="M47.3836 27.8114C47.6501 28.4103 47.9825 28.9433 48.249 29.5422C48.4488 29.9419 48.6487 30.3409 48.8478 30.674H46.4516C46.3886 30.5052 46.2986 30.3477 46.1852 30.2077C45.7854 29.4755 45.3864 28.6768 45.0533 27.944C45.0533 27.8774 45.0533 27.8774 44.9867 27.8107L47.3836 27.8114Z" fill="#FBFCFD"/>
<path d="M40.5933 27.8115C40.6599 28.2112 40.7932 28.5436 40.8598 28.9433L41.2588 30.7406H39.0624C38.8626 29.9419 38.6627 29.0765 38.5295 28.2778C38.5295 28.1446 38.4629 28.0113 38.4629 27.8781C39.1291 27.8115 39.8612 27.8115 40.5933 27.8115Z" fill="#FAFBFC"/>
<path d="M30.6747 30.7406C30.8079 30.2084 30.8745 29.6754 31.0078 29.0765C31.0574 28.6911 31.1467 28.3118 31.2743 27.9447V27.8115H33.5379C33.4713 28.1446 33.4047 28.4103 33.3381 28.7434L32.9391 30.5408V30.674C32.2055 30.7406 31.4734 30.7406 30.6747 30.7406Z" fill="#FBFBFD"/>
<path d="M49.9797 36.5968H47.7834C48.514 36.5301 49.2491 36.5301 49.9797 36.5968Z" fill="#CEC5C8"/>
<path d="M28.012 22.0856C28.1524 22.0838 28.2917 22.1101 28.4217 22.163C28.5518 22.2159 28.6699 22.2943 28.7692 22.3936C28.8685 22.4928 28.9469 22.611 28.9998 22.741C29.0527 22.8711 29.079 23.0104 29.0772 23.1508C29.0772 23.2964 29.0474 23.4405 28.9896 23.5742C28.9319 23.7079 28.8474 23.8284 28.7414 23.9283C28.6355 24.0282 28.5102 24.1054 28.3733 24.1551C28.2364 24.2048 28.0908 24.226 27.9454 24.2174C27.8049 24.2193 27.6655 24.193 27.5354 24.1402C27.4053 24.0873 27.287 24.0089 27.1877 23.9096C27.0884 23.8104 27.0099 23.6922 26.957 23.5621C26.904 23.432 26.8777 23.2926 26.8794 23.1522C26.8795 23.0065 26.9093 22.8623 26.9671 22.7286C27.0249 22.5948 27.1094 22.4743 27.2155 22.3744C27.3215 22.2745 27.4469 22.1973 27.5839 22.1477C27.7209 22.098 27.8665 22.0769 28.012 22.0856Z" fill="#464B54"/>
<path d="M30.5414 23.1523C30.5394 23.0118 30.5656 22.8723 30.6184 22.7421C30.6712 22.6119 30.7496 22.4936 30.8489 22.3942C30.9482 22.2948 31.0664 22.2163 31.1965 22.1633C31.3267 22.1103 31.4661 22.0839 31.6066 22.0857C31.7537 22.0802 31.9004 22.1062 32.0366 22.1621C32.1728 22.218 32.2955 22.3023 32.3964 22.4096C32.4973 22.5168 32.5741 22.6444 32.6216 22.7837C32.6691 22.9231 32.6862 23.071 32.6718 23.2175C32.6716 23.3631 32.6417 23.507 32.5838 23.6405C32.526 23.7741 32.4415 23.8944 32.3356 23.9942C32.2296 24.0939 32.1044 24.1709 31.9676 24.2206C31.8308 24.2702 31.6853 24.2913 31.54 24.2828C31.2653 24.2461 31.0131 24.1116 30.8297 23.904C30.6462 23.6963 30.5439 23.4294 30.5414 23.1523Z" fill="#464B54"/>
<path d="M23.2181 23.1523C23.2161 23.0118 23.2423 22.8724 23.2951 22.7421C23.348 22.6119 23.4263 22.4936 23.5256 22.3942C23.6249 22.2948 23.7431 22.2163 23.8733 22.1633C24.0034 22.1103 24.1428 22.0839 24.2833 22.0857C24.4306 22.0802 24.5773 22.1062 24.7137 22.1622C24.85 22.2181 24.9728 22.3026 25.0737 22.41C25.1747 22.5174 25.2514 22.6452 25.2988 22.7847C25.3462 22.9242 25.3632 23.0723 25.3486 23.2189C25.354 23.366 25.3278 23.5126 25.2719 23.6487C25.216 23.7848 25.1316 23.9075 25.0244 24.0083C24.9172 24.1091 24.7897 24.1858 24.6504 24.2333C24.511 24.2808 24.3632 24.2979 24.2167 24.2835C23.9422 24.2461 23.6903 24.1113 23.507 23.9036C23.3237 23.696 23.2211 23.4293 23.2181 23.1523Z" fill="#464B54"/>
<path d="M24.2868 36.6655V36.5989C24.2828 36.4432 24.3171 36.2888 24.3868 36.1495C24.4565 36.0102 24.5595 35.8902 24.6865 35.8001C24.8575 35.6573 25.0649 35.565 25.2854 35.5337H29.2125C29.4381 35.5316 29.6569 35.6114 29.8282 35.7583C29.9996 35.9051 30.1119 36.1091 30.1445 36.3324C30.1345 36.4263 30.1581 36.5207 30.2111 36.5989V36.6655C30.186 36.9451 30.0546 37.2045 29.8441 37.3903C29.6336 37.576 29.3598 37.674 29.0792 37.6641H25.4152C25.2752 37.6739 25.1348 37.6557 25.0019 37.6106C24.8691 37.5655 24.7466 37.4944 24.6416 37.4014C24.5365 37.3085 24.4511 37.1955 24.3902 37.0691C24.3292 36.9428 24.2941 36.8056 24.2868 36.6655Z" fill="#464B54"/>
<path d="M33.005 36.6655V36.5989C33.0009 36.4432 33.0352 36.2888 33.105 36.1495C33.1747 36.0102 33.2776 35.8902 33.4047 35.8001C33.5756 35.6573 33.783 35.565 34.0036 35.5337H37.9306C38.1563 35.5316 38.375 35.6114 38.5464 35.7583C38.7177 35.9051 38.8301 36.1091 38.8626 36.3324C38.8526 36.4263 38.8762 36.5207 38.9292 36.5989V36.6655C38.9043 36.9456 38.7727 37.2055 38.5617 37.3914C38.3507 37.5774 38.0763 37.6752 37.7953 37.6648H34.1368C33.8561 37.6747 33.5823 37.5766 33.3717 37.3907C33.1612 37.2048 33.0299 36.9453 33.005 36.6655Z" fill="#464B54"/>
<path d="M47.6501 36.6654C47.625 36.9451 47.4937 37.2044 47.2831 37.3902C47.0726 37.5759 46.7989 37.6739 46.5183 37.664H42.857C42.5764 37.6739 42.3027 37.5759 42.0922 37.3902C41.8816 37.2044 41.7503 36.9451 41.7252 36.6654V36.5988C41.7211 36.4431 41.7555 36.2888 41.8252 36.1495C41.8949 36.0102 41.9978 35.8902 42.1249 35.8001C42.2958 35.6572 42.5032 35.5649 42.7238 35.5336H46.6508C46.8772 35.5307 47.0969 35.6102 47.269 35.7573C47.4411 35.9044 47.5539 36.109 47.5863 36.333C47.5764 36.4269 47.6 36.5213 47.6529 36.5995L47.6501 36.6654Z" fill="#464B54"/>
<path d="M48.3822 40.2609V47.5841C48.3747 47.8648 48.2597 48.1318 48.061 48.3301C47.8622 48.5283 47.5949 48.6426 47.3142 48.6494H37.864C37.6081 48.6577 37.3594 48.5643 37.1722 48.3896C36.985 48.2149 36.8747 47.9732 36.8654 47.7174V40.1942C36.8664 39.9809 36.93 39.7726 37.0483 39.5951C37.1666 39.4176 37.3344 39.2787 37.5309 39.1956C37.6799 39.141 37.8388 39.1183 37.9972 39.129H47.3843C47.6589 39.1664 47.9109 39.3013 48.0943 39.5091C48.2776 39.7169 48.3801 39.9838 48.3829 40.2609H48.3822ZM38.9292 46.4516H46.1859V41.3927H38.9958V41.9916C38.9292 43.46 38.9292 44.9215 38.9292 46.4523V46.4516Z" fill="#464B54"/>
<path d="M38.9292 46.4516V41.392H46.1193V46.4516H38.9292Z" fill="#FBFCFE"/>
<path d="M38.9292 46.4517H39.0625C38.9959 46.5183 38.9958 46.4517 38.9292 46.4517Z" fill="#838E98"/>
<path d="M46.1859 46.4517V46.3185C46.195 46.327 46.2022 46.3374 46.2071 46.3488C46.212 46.3603 46.2145 46.3726 46.2145 46.3851C46.2145 46.3976 46.212 46.4099 46.2071 46.4213C46.2022 46.4328 46.195 46.4431 46.1859 46.4517Z" fill="#838E98"/>
</svg>
