<svg width="30" height="26" viewBox="0 0 30 26" fill="none" xmlns="http://www.w3.org/2000/svg">
<path d="M16.9103 0.00937825C15.1673 -0.0566985 13.4287 0.226923 11.797 0.843516C10.1653 1.46011 8.67366 2.39719 7.40993 3.59949C6.14621 4.80179 5.13603 6.24498 4.43898 7.84393C3.74192 9.44287 3.3721 11.1652 3.35132 12.9094H0.730324C0.587157 12.9049 0.445988 12.9439 0.325459 13.0213C0.204929 13.0987 0.110709 13.2108 0.0552408 13.3429C-0.000227313 13.4749 -0.0143345 13.6207 0.0147824 13.7609C0.0438992 13.9012 0.114871 14.0293 0.218324 14.1284L4.30332 18.1424C4.44132 18.2801 4.62834 18.3575 4.82332 18.3575C5.01831 18.3575 5.20533 18.2801 5.34332 18.1424L9.42832 14.1284C9.52916 14.027 9.5973 13.8978 9.62393 13.7573C9.65057 13.6168 9.63448 13.4716 9.57774 13.3404C9.52101 13.2091 9.42623 13.0979 9.30566 13.0211C9.18508 12.9443 9.04424 12.9054 8.90132 12.9094H6.27932C6.29335 11.5646 6.57461 10.236 7.10676 9.0009C7.63891 7.76579 8.41132 6.64882 9.37907 5.71494C10.3468 4.78107 11.4906 4.04892 12.7439 3.5611C13.9971 3.07327 15.3349 2.8395 16.6793 2.87338C19.3091 2.91587 21.8224 3.96541 23.7015 5.80575C25.5805 7.64609 26.6821 10.137 26.7793 12.7654C26.7629 14.6741 26.2147 16.5405 25.1963 18.155C24.1779 19.7694 22.7296 21.068 21.014 21.9049C19.2984 22.7417 17.3834 23.0838 15.4842 22.8925C13.585 22.7013 11.7767 21.9844 10.2623 20.8224C9.98013 20.6059 9.6294 20.4984 9.27439 20.5196C8.91938 20.5407 8.58386 20.689 8.32932 20.9374C8.18315 21.0782 8.06903 21.2489 7.99476 21.4378C7.92048 21.6268 7.88778 21.8295 7.89888 22.0322C7.90998 22.2349 7.96463 22.4328 8.0591 22.6124C8.15356 22.7921 8.28564 22.9493 8.44632 23.0734C10.7612 24.8595 13.6055 25.823 16.5293 25.8114C18.2726 25.8291 20.0018 25.4973 21.6146 24.8356C23.2275 24.1738 24.6914 23.1956 25.9199 21.9585C27.1483 20.7215 28.1164 19.2508 28.7669 17.6334C29.4175 16.0159 29.7372 14.2845 29.7073 12.5414C29.5408 9.22611 28.1312 6.0953 25.7596 3.77278C23.388 1.45025 20.2284 0.106541 16.9103 0.00937825ZM16.1633 7.17738C15.8759 7.1773 15.5998 7.28976 15.3942 7.49067C15.1886 7.69159 15.0699 7.96499 15.0633 8.25238V13.5284C15.066 13.7784 15.1334 14.0234 15.2591 14.2395C15.3848 14.4556 15.5644 14.6354 15.7803 14.7614L20.3483 17.4134C20.5993 17.5575 20.8963 17.5992 21.1772 17.5297C21.4582 17.4602 21.7015 17.2849 21.8563 17.0404C21.929 16.9186 21.9769 16.7836 21.9971 16.6432C22.0173 16.5028 22.0094 16.3597 21.974 16.2224C21.9385 16.085 21.8762 15.9561 21.7906 15.843C21.705 15.7298 21.5979 15.6348 21.4753 15.5634L17.2583 13.1114V8.24038C17.2502 7.95478 17.1305 7.68373 16.9249 7.48538C16.7192 7.28703 16.444 7.17717 16.1583 7.17938L16.1633 7.17738Z" fill="white"/>
</svg>
