<svg width="24" height="24" viewBox="0 0 24 24" fill="none" xmlns="http://www.w3.org/2000/svg">
<path d="M21.333 1.87634e-07H2.667C2.31673 -0.000131222 1.96986 0.0687631 1.64623 0.202746C1.32259 0.336729 1.02853 0.533173 0.780853 0.780853C0.533173 1.02853 0.336729 1.32259 0.202746 1.64623C0.0687631 1.96986 -0.000131222 2.31673 1.87634e-07 2.667V21.333C-0.000131222 21.6833 0.0687631 22.0301 0.202746 22.3538C0.336729 22.6774 0.533173 22.9715 0.780853 23.2191C1.02853 23.4668 1.32259 23.6633 1.64623 23.7973C1.96986 23.9312 2.31673 24.0001 2.667 24H21.333C22.0397 23.9979 22.7168 23.7162 23.2165 23.2165C23.7162 22.7168 23.9979 22.0397 24 21.333V2.667C24.0001 2.31673 23.9312 1.96986 23.7973 1.64623C23.6633 1.32259 23.4668 1.02853 23.2191 0.780853C22.9715 0.533173 22.6774 0.336729 22.3538 0.202746C22.0301 0.0687631 21.6833 -0.000131222 21.333 1.87634e-07ZM21.333 21.333H2.667V5.333H21.333V21.333ZM18.667 12H5.333V9.333H18.667V12ZM13.334 17.333H5.334V14.667H13.334V17.333Z" fill="white"/>
</svg>
