<svg width="26" height="25" viewBox="0 0 26 25" fill="none" xmlns="http://www.w3.org/2000/svg">
<path d="M11 0C4.925 0 0 4.477 0 10C0.013838 11.3751 0.324845 12.7309 0.911702 13.9745C1.49856 15.2181 2.34739 16.3201 3.4 17.205C3.03206 18.3457 2.30527 19.337 1.328 20.031C1.21318 20.0775 1.11972 20.165 1.06575 20.2766C1.01178 20.3881 1.00113 20.5157 1.03588 20.6346C1.07062 20.7535 1.14828 20.8553 1.2538 20.9202C1.35932 20.9852 1.48518 21.0086 1.607 20.986C3.40896 20.9348 5.14041 20.2746 6.519 19.113C7.15226 19.3729 7.80711 19.5766 8.476 19.722C8.16366 18.8483 8.00269 17.9278 8 17C8 12.037 12.486 8 18 8C19.3327 7.99712 20.6546 8.23879 21.9 8.713C21.2 3.8 16.594 0 11 0ZM18 10C13.582 10 10 13.134 10 17C10 20.866 13.582 24 18 24C19.0163 23.9996 20.0252 23.8271 20.984 23.49C22.2646 24.4319 23.8047 24.9557 25.394 24.99C25.5168 25.0143 25.6442 24.9917 25.7511 24.9266C25.858 24.8616 25.9366 24.7588 25.9714 24.6385C26.0062 24.5183 25.9947 24.3894 25.939 24.2773C25.8834 24.1652 25.7878 24.078 25.671 24.033C24.8741 23.4553 24.2364 22.6854 23.817 21.795C24.4926 21.1901 25.0354 20.4517 25.4112 19.6264C25.7869 18.801 25.9874 17.9067 26 17C26 13.134 22.418 10 18 10Z" fill="white"/>
</svg>
