<svg width="26" height="20" viewBox="0 0 26 20" fill="none" xmlns="http://www.w3.org/2000/svg">
<path d="M23.4 9.65138C23.4276 8.98759 23.7163 8.36158 24.2033 7.90964C24.6902 7.4577 25.336 7.21644 26 7.23838V2.41338C25.9721 1.74976 25.6833 1.12401 25.1964 0.672285C24.7095 0.220563 24.0638 -0.0205654 23.4 0.0013764H2.6C1.93752 -0.0202378 1.29344 0.221383 0.808638 0.673392C0.323834 1.1254 0.0377648 1.75101 0.013 2.41338V7.23838C0.675647 7.21677 1.31987 7.45852 1.8047 7.91075C2.28954 8.36297 2.57549 8.98883 2.6 9.65138C2.57422 10.3157 2.28603 10.9427 1.79863 11.3949C1.31123 11.847 0.664402 12.0874 0 12.0634V16.8884C0.0275942 17.5522 0.3163 18.1782 0.80326 18.6301C1.29022 19.082 1.936 19.3233 2.6 19.3014H23.4C24.064 19.3233 24.7098 19.082 25.1967 18.6301C25.6837 18.1782 25.9724 17.5522 26 16.8884V12.0634C25.3362 12.0853 24.6905 11.8442 24.2036 11.3925C23.7167 10.9407 23.4279 10.315 23.4 9.65138ZM17.654 15.4414L13 12.6664L8.346 15.4414L9.746 10.4714L5.473 7.22638L10.985 6.92638L13 2.17238L15 6.93738L20.512 7.23738L16.235 10.4824L17.652 15.4404L17.654 15.4414Z" fill="white"/>
</svg>
