<svg width="29" height="22" viewBox="0 0 29 22" fill="none" xmlns="http://www.w3.org/2000/svg">
<path d="M22.9106 13.75V2.75C22.9347 2.04865 22.6808 1.36617 22.2041 0.85113C21.7275 0.336085 21.0667 0.0301769 20.3656 0H2.54657C1.84546 0.0301769 1.18466 0.336085 0.708006 0.85113C0.231355 1.36617 -0.0225463 2.04865 0.00157398 2.75V13.75C-0.0225463 14.4513 0.231355 15.1338 0.708006 15.6489C1.18466 16.1639 1.84546 16.4698 2.54657 16.5H20.3656C21.0667 16.4698 21.7275 16.1639 22.2041 15.6489C22.6808 15.1338 22.9347 14.4513 22.9106 13.75ZM11.4566 12.375C10.4031 12.3344 9.40897 11.877 8.69277 11.1034C7.97658 10.3298 7.59701 9.30344 7.63757 8.25C7.59701 7.19673 7.97644 6.17047 8.69242 5.39692C9.40841 4.62336 10.4023 4.16585 11.4556 4.125C12.5088 4.16585 13.5027 4.62336 14.2187 5.39692C14.9347 6.17047 15.3141 7.19673 15.2736 8.25C15.3141 9.3031 14.9349 10.3292 14.2191 11.1027C13.5033 11.8763 12.5097 12.3339 11.4566 12.375ZM28.0016 4.125V19.25C28.0257 19.9513 27.7718 20.6338 27.2951 21.1489C26.8185 21.6639 26.1577 21.9698 25.4566 22H3.81957V19.25H25.4566V4.125H28.0016Z" fill="white"/>
</svg>
