<svg width="27" height="26" viewBox="0 0 27 26" fill="none" xmlns="http://www.w3.org/2000/svg">
<path d="M7.243 2.0615L5.374 0.1895C3.77828 1.40772 2.4698 2.96177 1.54115 4.74165C0.612494 6.52154 0.0863683 8.48378 0 10.4895H2.613C2.7028 8.82729 3.16561 7.2066 3.96711 5.74763C4.76861 4.28865 5.88825 3.0288 7.243 2.0615ZM23.403 10.4815H26.012C25.9191 8.47818 25.39 6.5193 24.4616 4.74165C23.5332 2.964 22.228 1.41045 20.637 0.1895L18.785 2.0615C20.1329 3.03268 21.2469 4.29263 22.0457 5.74936C22.8445 7.20609 23.3079 8.82281 23.402 10.4815H23.403ZM20.834 11.1375C20.834 7.1115 18.695 3.7375 14.965 2.8485V1.9565C14.965 1.4376 14.7589 0.939961 14.392 0.573046C14.025 0.206131 13.5274 0 13.0085 0C12.4896 0 11.992 0.206131 11.625 0.573046C11.2581 0.939961 11.052 1.4376 11.052 1.9565V2.8485C7.309 3.7405 5.183 7.0975 5.183 11.1375V17.6945L2.574 20.3175V21.6295H23.442V20.3175L20.833 17.6945L20.834 11.1375ZM13.007 25.5635C13.1824 25.5664 13.3576 25.5489 13.529 25.5115C14.1203 25.3921 14.6513 25.0698 15.03 24.6003C15.4087 24.1308 15.6114 23.5437 15.603 22.9405H10.386C10.3892 23.635 10.6664 24.3002 11.1574 24.7914C11.6484 25.2826 12.3135 25.5601 13.008 25.5635H13.007Z" fill="white"/>
</svg>
