<svg width="26" height="26" viewBox="0 0 26 26" fill="none" xmlns="http://www.w3.org/2000/svg">
<path d="M23.4 0H2.6C1.91269 0.00343658 1.25471 0.278881 0.76992 0.766103C0.285134 1.25333 0.0129914 1.91268 0.013 2.6L0 26L5.2 20.8H23.4C24.0889 20.7979 24.749 20.5233 25.2361 20.0361C25.7233 19.549 25.9979 18.8889 26 18.2V2.6C25.9979 1.91109 25.7233 1.25099 25.2361 0.763853C24.749 0.276715 24.0889 0.00211001 23.4 0ZM9.1 11.7H6.5V9.1H9.1V11.7ZM14.3 11.7H11.7V9.1H14.3V11.7ZM19.5 11.7H16.9V9.1H19.5V11.7Z" fill="white"/>
</svg>
