<svg width="32" height="27" viewBox="0 0 32 27" fill="none" xmlns="http://www.w3.org/2000/svg">
<path d="M5.592 2.23734e-07C5.2982 -0.000131203 5.00725 0.0576409 4.73578 0.170014C4.46432 0.282387 4.21766 0.447158 4.00991 0.654909C3.80216 0.86266 3.63739 1.10932 3.52501 1.38078C3.41264 1.65225 3.35487 1.9432 3.355 2.237V3.355L0 7.829C8.8407e-09 8.42229 0.235683 8.99128 0.655202 9.4108C1.07472 9.83032 1.64371 10.066 2.237 10.066C2.83029 10.066 3.39928 9.83032 3.8188 9.4108C4.23832 8.99128 4.474 8.42229 4.474 7.829L6.71 3.355H10.065L8.947 7.829C8.947 8.42229 9.18268 8.99128 9.6022 9.4108C10.0217 9.83032 10.5907 10.066 11.184 10.066C11.7773 10.066 12.3463 9.83032 12.7658 9.4108C13.1853 8.99128 13.421 8.42229 13.421 7.829V3.355H17.895V7.829C17.895 8.42229 18.1307 8.99128 18.5502 9.4108C18.9697 9.83032 19.5387 10.066 20.132 10.066C20.7253 10.066 21.2943 9.83032 21.7138 9.4108C22.1333 8.99128 22.369 8.42229 22.369 7.829L21.249 3.355H24.6L26.837 7.829C26.837 8.42229 27.0727 8.99128 27.4922 9.4108C27.9117 9.83032 28.4807 10.066 29.074 10.066C29.6673 10.066 30.2363 9.83032 30.6558 9.4108C31.0753 8.99128 31.311 8.42229 31.311 7.829L27.959 3.355V2.237C27.9591 1.94328 27.9014 1.65241 27.7891 1.38101C27.6768 1.10961 27.5121 0.863001 27.3044 0.655263C27.0968 0.447525 26.8503 0.282733 26.5789 0.170301C26.3076 0.0578691 26.0167 1.9436e-07 25.723 2.23734e-07H5.592ZM13.421 11.68C12.747 12.0866 11.9747 12.3015 11.1875 12.3015C10.4003 12.3015 9.62805 12.0866 8.954 11.68C8.27921 12.0845 7.50724 12.2982 6.7205 12.2982C5.93376 12.2982 5.16179 12.0845 4.487 11.68C3.80543 12.0825 3.02854 12.2952 2.237 12.296V24.6C2.23687 24.8938 2.29464 25.1848 2.40701 25.4562C2.51939 25.7277 2.68416 25.9743 2.89191 26.1821C3.09966 26.3898 3.34632 26.5546 3.61778 26.667C3.88925 26.7794 4.1802 26.8371 4.474 26.837H17.894V15.657H24.6V26.841H26.837C27.1315 26.8417 27.4232 26.7841 27.6954 26.6718C27.9676 26.5594 28.2149 26.3943 28.4231 26.1861C28.6313 25.9779 28.7964 25.7306 28.9088 25.4584C29.0211 25.1862 29.0787 24.8945 29.078 24.6V12.3C28.2865 12.2992 27.5096 12.0865 26.828 11.684C26.1532 12.0885 25.3812 12.3022 24.5945 12.3022C23.8078 12.3022 23.0358 12.0885 22.361 11.684C21.687 12.0906 20.9147 12.3055 20.1275 12.3055C19.3403 12.3055 18.568 12.0906 17.894 11.684C17.2189 12.0913 16.4454 12.3066 15.657 12.3066C14.8686 12.3066 14.0951 12.0913 13.42 11.684L13.421 11.68ZM6.71 15.657H13.42V22.367H6.71V15.657Z" fill="white"/>
</svg>
