<svg width="25" height="30" viewBox="0 0 25 30" fill="none" xmlns="http://www.w3.org/2000/svg">
<path d="M11.456 0.0271613C8.3004 0.305604 5.36653 1.76622 3.24227 4.11635C1.11801 6.46648 -0.0397207 9.53252 0.00104089 12.7002V21.8232C0.000382847 22.3606 0.105751 22.8929 0.311109 23.3895C0.516468 23.8861 0.817784 24.3374 1.1978 24.7174C1.57782 25.0974 2.02906 25.3987 2.5257 25.6041C3.02234 25.8095 3.55462 25.9148 4.09204 25.9142H5.45604C6.17864 25.9121 6.87104 25.6241 7.38199 25.1131C7.89294 24.6022 8.18093 23.9098 8.18304 23.1872V17.7272C8.18093 17.0046 7.89294 16.3122 7.38199 15.8012C6.87104 15.2903 6.17864 15.0023 5.45604 15.0002H2.72804V12.6682C2.6895 10.1363 3.63173 7.68775 5.35751 5.83484C7.0833 3.98194 9.45887 2.86836 11.987 2.72716C13.2646 2.68859 14.5368 2.90702 15.7283 3.36948C16.9199 3.83193 18.0063 4.52901 18.9233 5.41933C19.8403 6.30966 20.5692 7.3751 21.0666 8.55244C21.564 9.72979 21.8199 10.995 21.819 12.2732V15.0002H19.092C18.3694 15.0023 17.677 15.2903 17.1661 15.8012C16.6551 16.3122 16.3672 17.0046 16.365 17.7272V23.1822C16.3672 23.9048 16.6551 24.5972 17.1661 25.1081C17.677 25.6191 18.3694 25.9071 19.092 25.9092H21.819V27.2732H13.638C13.2828 27.2828 12.9454 27.4307 12.6975 27.6853C12.4497 27.94 12.311 28.2813 12.311 28.6367C12.311 28.992 12.4497 29.3334 12.6975 29.588C12.9454 29.8427 13.2828 29.9905 13.638 30.0002H20.456C20.9935 30.0008 21.5257 29.8955 22.0224 29.6901C22.519 29.4847 22.9703 29.1834 23.3503 28.8034C23.7303 28.4234 24.0316 27.9721 24.237 27.4755C24.4423 26.9789 24.5477 26.4466 24.547 25.9092V12.2732C24.5469 10.5926 24.2017 8.92988 23.5327 7.38817C22.8637 5.84645 21.8853 4.45854 20.658 3.31045C19.4306 2.16235 17.9806 1.27853 16.3978 0.713761C14.8149 0.148988 13.1329 -0.0847054 11.456 0.0271613Z" fill="white"/>
</svg>
