<svg width="24" height="22" viewBox="0 0 24 22" fill="none" xmlns="http://www.w3.org/2000/svg">
<path d="M23.511 19.215L21.594 1.963C21.594 1.44238 21.3872 0.943083 21.0191 0.574949C20.6509 0.206815 20.1516 0 19.631 0H3.926C3.40538 0 2.90608 0.206815 2.53795 0.574949C2.16982 0.943083 1.963 1.44238 1.963 1.963L0.046 19.215C0.0161597 19.3517 0.00074197 19.4911 0 19.631C0 20.1516 0.206816 20.6509 0.57495 21.0191C0.943083 21.3872 1.44238 21.594 1.963 21.594H21.594C22.1146 21.594 22.6139 21.3872 22.982 21.0191C23.3502 20.6509 23.557 20.1516 23.557 19.631C23.5563 19.4911 23.5408 19.3517 23.511 19.215ZM16.686 4.815V5.889C16.686 7.19068 16.1689 8.43905 15.2485 9.35948C14.3281 10.2799 13.0797 10.797 11.778 10.797C10.4763 10.797 9.22795 10.2799 8.30752 9.35948C7.38709 8.43905 6.87 7.19068 6.87 5.889V4.818C6.61612 4.72762 6.39197 4.56919 6.22205 4.36003C6.05213 4.15087 5.94298 3.89902 5.90652 3.63202C5.87006 3.36501 5.9077 3.09312 6.01532 2.84606C6.12295 2.599 6.29642 2.38628 6.51677 2.23114C6.73712 2.07601 6.99588 1.98443 7.26476 1.96642C7.53364 1.94841 7.8023 2.00466 8.04138 2.12902C8.28045 2.25338 8.48074 2.44107 8.62035 2.67157C8.75996 2.90207 8.83353 3.16652 8.833 3.436V5.889C8.84722 6.66053 9.16369 7.39566 9.71435 7.93626C10.265 8.47686 11.0058 8.77973 11.7775 8.77973C12.5492 8.77973 13.29 8.47686 13.8407 7.93626C14.3913 7.39566 14.7078 6.66053 14.722 5.889V3.435C14.721 3.16491 14.7942 2.89974 14.9338 2.66852C15.0734 2.4373 15.2739 2.24894 15.5134 2.12407C15.7529 1.9992 16.0222 1.94263 16.2917 1.96055C16.5612 1.97847 16.8205 2.07019 17.0414 2.22568C17.2622 2.38116 17.436 2.59441 17.5438 2.84208C17.6515 3.08975 17.6891 3.36228 17.6523 3.62986C17.6155 3.89743 17.5058 4.14972 17.3352 4.35911C17.1645 4.56849 16.9396 4.72691 16.685 4.817L16.686 4.815Z" fill="white"/>
</svg>
