<svg width="25" height="25" viewBox="0 0 25 25" fill="none" xmlns="http://www.w3.org/2000/svg">
<path d="M12.062 4.14751e-08C9.67652 -0.000197743 7.34455 0.706999 5.361 2.03216C3.37745 3.35732 1.8314 5.24092 0.918381 7.44476C0.00535959 9.6486 -0.233631 12.0737 0.231632 14.4134C0.696896 16.753 1.84552 18.9022 3.53224 20.5891C5.21896 22.2759 7.36802 23.4247 9.70765 23.8902C12.0473 24.3556 14.4724 24.1168 16.6763 23.204C18.8802 22.2912 20.764 20.7453 22.0893 18.7618C23.4146 16.7784 24.122 14.4465 24.122 12.061C24.1209 8.86272 22.85 5.79573 20.5886 3.53411C18.3272 1.27249 15.2603 0.0013253 12.062 4.14751e-08ZM12.062 3.618C12.7776 3.618 13.4771 3.83019 14.0721 4.22774C14.667 4.62529 15.1308 5.19035 15.4046 5.85145C15.6784 6.51255 15.7501 7.24001 15.6105 7.94184C15.4709 8.64366 15.1263 9.28833 14.6203 9.79431C14.1143 10.3003 13.4697 10.6449 12.7678 10.7845C12.066 10.9241 11.3386 10.8524 10.6775 10.5786C10.0164 10.3048 9.4513 9.84103 9.05375 9.24605C8.6562 8.65108 8.44401 7.95157 8.44401 7.236C8.44335 6.76069 8.53648 6.28993 8.71807 5.85067C8.89966 5.41142 9.16613 5.01231 9.50222 4.67622C9.83832 4.34013 10.2374 4.07365 10.6767 3.89206C11.1159 3.71047 11.5867 3.61734 12.062 3.618ZM12.062 20.744C10.6291 20.7439 9.21842 20.3891 7.95586 19.7114C6.69329 19.0337 5.61805 18.0541 4.826 16.86C4.862 14.46 9.65001 13.145 12.062 13.145C14.474 13.145 19.262 14.46 19.298 16.86C18.506 18.0541 17.4307 19.0337 16.1682 19.7114C14.9056 20.3891 13.495 20.7439 12.062 20.744Z" fill="white"/>
</svg>
