<svg width="28" height="26" viewBox="0 0 28 26" fill="none" xmlns="http://www.w3.org/2000/svg">
<path d="M25.4552 5.2H15.7952L19.9822 0.923L19.0912 0L14.0002 5.2L8.90915 0L8.00915 0.923L12.2092 5.2H2.54515C2.2073 5.20353 1.87346 5.27358 1.56269 5.40617C1.25192 5.53876 0.970327 5.73128 0.733985 5.97273C0.497643 6.21418 0.311189 6.49982 0.185276 6.81335C0.0593626 7.12688 -0.00354265 7.46215 0.000153956 7.8V23.4C-0.00492993 24.0816 0.259827 24.7376 0.736635 25.2247C1.21344 25.7118 1.86359 25.9905 2.54515 26H25.4552C26.1367 25.9905 26.7869 25.7118 27.2637 25.2247C27.7405 24.7376 28.0052 24.0816 28.0002 23.4V7.8C28.0039 7.46215 27.9409 7.12688 27.815 6.81335C27.6891 6.49982 27.5027 6.21418 27.2663 5.97273C27.03 5.73128 26.7484 5.53876 26.4376 5.40617C26.1269 5.27358 25.793 5.20353 25.4552 5.2ZM25.4552 23.4H2.54515V7.8H25.4552V23.4ZM10.1822 10.4V20.8L19.0912 15.6L10.1822 10.4Z" fill="white"/>
</svg>
