<svg width="119" height="28" viewBox="0 0 119 28" fill="none" xmlns="http://www.w3.org/2000/svg">
<g clip-path="url(#clip0)">
<path d="M78.6104 0C78.6104 1.10884 78.6142 2.09627 78.6104 3.08315C78.6044 4.40696 78.5707 5.73133 78.5919 7.05403C78.5993 7.25419 78.5629 7.4535 78.4854 7.63744C78.4079 7.82137 78.2912 7.98528 78.1439 8.1172C75.0889 11.2185 72.0416 14.3277 69.0019 17.4446C68.7959 17.6464 68.6083 17.867 68.4412 18.1034C67.4657 19.5559 67.6655 20.8825 69.0666 21.905C70.1881 22.764 71.5498 23.2315 72.9507 23.2383C77.5048 23.2249 82.0584 23.2383 86.6142 23.2305C88.09 23.2223 89.534 22.7901 90.7813 21.983C92.2277 21.0713 92.5276 19.9558 91.5287 18.5596C90.6348 17.4265 89.6784 16.3465 88.6643 15.3249C88.5124 15.1578 88.3328 15.0153 88.0889 14.7903H102.315C102.231 14.9107 102.142 15.0266 102.046 15.1378C98.0642 19.301 94.0839 23.4659 90.1057 27.6324C89.9615 27.7708 89.789 27.8746 89.6007 27.9363C89.4123 27.9979 89.213 28.0159 89.017 27.9889H78.955C76.6491 27.9889 74.3426 28.0212 72.0383 27.975C70.8984 27.9932 69.7599 27.887 68.642 27.6581C67.2772 27.3275 66.0223 26.6333 65.0046 25.6458C63.987 24.6584 63.243 23.413 62.8483 22.0361C62.4535 20.6592 62.4221 19.1999 62.7571 17.8066C63.0922 16.4132 63.7817 15.1354 64.7558 14.103C69.2457 9.43989 73.807 4.84861 78.3399 0.229463C78.391 0.175998 78.4526 0.132548 78.6104 0Z" fill="#0C765E"/>
<path d="M12.178 23.1877C10.7517 24.6462 9.34727 26.0686 7.96241 27.5139C7.84316 27.6468 7.69637 27.7508 7.53276 27.8183C7.36916 27.8857 7.1929 27.9149 7.01685 27.9037C4.73053 27.8865 2.44692 27.8948 0.079483 27.8948C0.232993 27.7238 0.346767 27.5868 0.470337 27.4598C4.89783 22.9302 9.32695 18.4005 13.7577 13.8708C14.9391 12.6646 16.4601 11.8673 18.1071 11.591C19.7541 11.3147 21.4444 11.5731 22.9405 12.3301C24.4365 13.0871 25.6632 14.3046 26.4482 15.8115C27.2331 17.3184 27.5369 19.0391 27.3169 20.7317C27.0969 22.4244 26.364 24.004 25.2214 25.2486C24.0787 26.4933 22.5837 27.3404 20.9462 27.6711C19.3088 28.0017 17.6112 27.7992 16.0921 27.0921C14.5729 26.3849 13.3084 25.2086 12.4763 23.7284C12.3815 23.5647 12.2923 23.3954 12.178 23.1877ZM16.9036 19.6529C16.9008 20.334 17.1625 20.9884 17.6313 21.4721C18.1001 21.9558 18.7375 22.2291 19.4033 22.232C20.0691 22.2349 20.7087 21.967 21.1815 21.4874C21.6542 21.0078 21.9214 20.3557 21.9242 19.6746C21.9256 19.3373 21.8621 19.0031 21.7372 18.6909C21.6123 18.3788 21.4286 18.0949 21.1965 17.8554C20.9644 17.6159 20.6884 17.4255 20.3844 17.2951C20.0803 17.1647 19.7542 17.0969 19.4245 17.0955C19.0949 17.094 18.7682 17.159 18.4631 17.2868C18.1579 17.4145 17.8804 17.6025 17.6463 17.84C17.4122 18.0775 17.2262 18.3598 17.0987 18.6708C16.9713 18.9819 16.905 19.3156 16.9036 19.6529Z" fill="#131313"/>
<path d="M103.771 23.1748C102.32 24.6685 100.934 26.1148 99.5178 27.53C99.2888 27.742 98.995 27.8662 98.6865 27.8814C96.533 27.9153 94.3795 27.9087 92.2266 27.9148H91.6822C91.851 27.7187 91.95 27.5901 92.0633 27.4754C96.4933 22.942 100.902 18.3869 105.364 13.8864C106.42 12.8109 107.749 12.0587 109.2 11.7147C110.652 11.3707 112.168 11.4486 113.579 11.9397C114.989 12.4307 116.237 13.3152 117.182 14.4935C118.128 15.6718 118.732 17.0969 118.928 18.608C119.182 20.4981 118.776 22.4195 117.78 24.0326C116.783 25.6456 115.262 26.8463 113.484 27.4225C111.709 28.0103 109.789 27.9457 108.055 27.2396C106.322 26.5335 104.884 25.2304 103.989 23.5552C103.931 23.4549 103.874 23.3564 103.771 23.1748ZM111.022 22.2035C111.684 22.2056 112.32 21.9387 112.791 21.4614C113.261 20.9842 113.527 20.3355 113.53 19.6578C113.534 19.3172 113.472 18.9791 113.348 18.6632C113.223 18.3473 113.038 18.06 112.804 17.8179C112.569 17.5757 112.29 17.3837 111.983 17.2528C111.676 17.122 111.346 17.055 111.013 17.0558C110.68 17.0565 110.35 17.1249 110.043 17.2571C109.736 17.3893 109.458 17.5826 109.225 17.8258C108.992 18.0689 108.808 18.3571 108.685 18.6735C108.561 18.99 108.501 19.3283 108.506 19.6689C108.508 20.0046 108.574 20.3367 108.702 20.646C108.829 20.9553 109.015 21.2359 109.249 21.4714C109.483 21.707 109.76 21.8929 110.064 22.0185C110.368 22.1442 110.694 22.207 111.022 22.2035Z" fill="#0C765E"/>
<path d="M43.7886 16.2288C44.2981 15.6992 44.7554 15.208 45.2311 14.738C45.3534 14.5958 45.5193 14.5004 45.7015 14.4673C48.0967 14.4495 50.4919 14.455 52.9834 14.455C52.8234 14.6399 52.7113 14.7808 52.5888 14.9078C49.1321 18.4491 45.6741 21.9889 42.2148 25.5273C41.0149 26.7479 39.4666 27.5464 37.7939 27.8074C36.1211 28.0684 34.4105 27.7784 32.9095 26.9792C31.4085 26.1799 30.1948 24.913 29.444 23.3616C28.6932 21.8102 28.4442 20.0547 28.7329 18.3489C29.0217 16.6431 29.8332 15.0755 31.0502 13.8727C32.2672 12.6699 33.8266 11.8943 35.5029 11.658C37.1792 11.4217 38.8855 11.737 40.375 12.5583C41.8646 13.3796 43.0603 14.6643 43.7891 16.2266L43.7886 16.2288ZM34.0494 19.7141C34.0407 20.0508 34.0977 20.3859 34.217 20.6999C34.3364 21.0138 34.5156 21.3003 34.7444 21.5425C34.9732 21.7848 35.2469 21.9779 35.5494 22.1107C35.852 22.2436 36.1774 22.3133 36.5066 22.316C36.8423 22.3341 37.1781 22.2829 37.494 22.1654C37.8099 22.0479 38.0994 21.8665 38.3454 21.6321C38.5913 21.3977 38.7886 21.115 38.9254 20.8009C39.0623 20.4869 39.136 20.1478 39.1421 19.804C39.1481 19.4602 39.0865 19.1186 38.9608 18.7997C38.8351 18.4807 38.6479 18.1909 38.4104 17.9476C38.1729 17.7043 37.8899 17.5123 37.5784 17.3832C37.2669 17.2541 36.9331 17.1905 36.597 17.1962C36.2679 17.1894 35.9407 17.2493 35.6343 17.3723C35.3278 17.4954 35.0482 17.6792 34.8114 17.9131C34.5747 18.1471 34.3854 18.4267 34.2547 18.7358C34.1239 19.0449 34.0541 19.3773 34.0494 19.7141Z" fill="#0C765E"/>
<path d="M63.0683 14.465C62.7629 14.7552 62.4488 15.0364 62.1543 15.3372C58.2291 19.3418 54.3077 23.3491 50.3901 27.3589C50.2635 27.4988 50.1093 27.6096 49.9378 27.6839C49.7662 27.7582 49.5812 27.7944 49.395 27.79C47.0172 27.8368 44.64 27.9142 42.1691 27.9849C42.3036 27.8129 42.3803 27.6926 42.4772 27.5951C46.6949 23.2849 50.9154 18.978 55.1385 14.6744C55.2821 14.5018 55.4786 14.384 55.696 14.3403C58.1309 14.318 60.5664 14.3258 63.0019 14.3258L63.0683 14.465Z" fill="#0C765E"/>
<path d="M5.35708 14.1426C5.36232 14.6846 5.21037 15.216 4.9204 15.6697C4.63044 16.1233 4.2155 16.4788 3.72806 16.6912C3.24062 16.9036 2.70257 16.9633 2.18194 16.8629C1.66131 16.7624 1.18149 16.5063 0.80315 16.1268C0.424808 15.7474 0.164938 15.2617 0.0564028 14.7312C-0.0521327 14.2006 -0.00446199 13.6491 0.193391 13.1463C0.391243 12.6434 0.730392 12.2119 1.16795 11.9063C1.6055 11.6007 2.12181 11.4347 2.65159 11.4292C3.00348 11.4253 3.35268 11.4923 3.6792 11.6266C4.00572 11.7609 4.30314 11.9598 4.55444 12.2118C4.80575 12.4638 5.00599 12.7641 5.14372 13.0954C5.28145 13.4267 5.35395 13.7826 5.35708 14.1426Z" fill="#131313"/>
<path d="M60.0672 7.89052C60.4201 7.88784 60.77 7.95705 61.0965 8.09411C61.4229 8.23118 61.7195 8.43336 61.9688 8.68886C62.2181 8.94436 62.4153 9.24807 62.5487 9.5823C62.6822 9.91653 62.7492 10.2746 62.746 10.6356C62.7384 11.3614 62.4492 12.0544 61.9422 12.5621C61.4351 13.0698 60.7517 13.3507 60.0422 13.3428C59.3327 13.335 58.6554 13.0392 58.1591 12.5204C57.6629 12.0016 57.3884 11.3024 57.3961 10.5766C57.3985 10.2206 57.4697 9.86866 57.6053 9.54087C57.741 9.21308 57.9386 8.9159 58.1867 8.66637C58.4349 8.41684 58.7287 8.21987 59.0514 8.08674C59.3741 7.9536 59.7193 7.88692 60.0672 7.89052Z" fill="#0C765E"/>
<path d="M94.4476 10.5922C94.4512 9.86641 94.7365 9.17177 95.2407 8.66115C95.7449 8.15052 96.4267 7.86573 97.1362 7.86942C97.8456 7.87311 98.5246 8.165 99.0237 8.68084C99.5228 9.19669 99.8012 9.89425 99.7976 10.6201C99.794 11.3459 99.5087 12.0405 99.0045 12.5512C98.5003 13.0618 97.8184 13.3466 97.109 13.3429C96.3995 13.3392 95.7205 13.0473 95.2214 12.5315C94.7223 12.0156 94.444 11.3181 94.4476 10.5922Z" fill="#0C765E"/>
</g>
<defs>
<clipPath id="clip0">
<rect width="119" height="28" fill="white"/>
</clipPath>
</defs>
</svg>
